<svg width="500" height="500" viewBox="0 0 500 500" fill="none" xmlns="http://www.w3.org/2000/svg">
<path d="M443.92 314.061H263.174C259.942 314.061 257.312 311.431 257.312 308.199V44.925C257.312 41.693 259.942 39.063 263.174 39.063H443.92C447.152 39.063 449.782 41.692 449.782 44.925V308.198C449.783 311.431 447.153 314.061 443.92 314.061ZM263.174 39.314C260.079 39.314 257.562 41.832 257.562 44.926V308.199C257.562 311.294 260.08 313.811 263.174 313.811H443.92C447.015 313.811 449.532 311.294 449.532 308.199V44.925C449.532 41.831 447.014 39.313 443.92 39.313L263.174 39.314Z" fill="#E0E0E0"/>
<path d="M235.493 314.061H54.746C51.514 314.061 48.884 311.431 48.884 308.199V44.925C48.884 41.693 51.513 39.063 54.746 39.063H235.493C238.725 39.063 241.355 41.692 241.355 44.925V308.198C241.355 311.431 238.725 314.061 235.493 314.061ZM54.746 39.314C51.652 39.314 49.134 41.832 49.134 44.926V308.199C49.134 311.294 51.652 313.811 54.746 313.811H235.493C238.588 313.811 241.105 311.294 241.105 308.199V44.925C241.105 41.831 238.587 39.313 235.493 39.313L54.746 39.314Z" fill="#E0E0E0"/>
<path d="M500 375.131H0V375.381H500V375.131Z" fill="#E0E0E0"/>
<path d="M67.732 389.395H51.672V389.645H67.732V389.395Z" fill="#E0E0E0"/>
<path d="M223.882 386.685H170.352V386.935H223.882V386.685Z" fill="#E0E0E0"/>
<path d="M104.982 398.685H68.732V398.935H104.982V398.685Z" fill="#E0E0E0"/>
<path d="M421.542 386.555H378.352V386.805H421.542V386.555Z" fill="#E0E0E0"/>
<path d="M436.782 386.555H430.452V386.805H436.782V386.555Z" fill="#E0E0E0"/>
<path d="M370.102 392.785H316.212V393.035H370.102V392.785Z" fill="#E0E0E0"/>
<path d="M283.488 122.372C280.349 130.02 278.799 138.053 278.694 146.049L266.676 149.576L271.274 173.284L283.741 172.063C286.826 179.438 291.268 186.308 297.039 192.23L291.052 203.191L311.068 216.703L318.996 207.053C326.645 210.191 334.678 211.742 342.673 211.847L346.201 223.866L369.908 219.266L368.687 206.801C376.063 203.713 382.934 199.272 388.855 193.502L399.816 199.489L413.328 179.473L403.678 171.545C406.816 163.896 408.367 155.863 408.471 147.869L420.488 144.341L415.891 120.633L403.425 121.854C400.338 114.479 395.896 107.609 390.125 101.688L396.112 90.727L376.096 77.215L368.169 86.866C360.519 83.727 352.486 82.175 344.492 82.07L340.964 70.052L317.256 74.652L318.478 87.117C311.102 90.203 304.232 94.644 298.311 100.415L287.35 94.428L273.837 114.445L283.488 122.372ZM361.874 119.863C376.837 129.965 380.78 150.286 370.678 165.251C360.575 180.216 340.253 184.157 325.29 174.056C310.325 163.953 306.384 143.633 316.486 128.668C326.589 113.703 346.909 109.76 361.874 119.863Z" fill="#EBEBEB"/>
<path d="M136.1 58.5219C133.276 62.8229 131.377 67.5469 130.365 72.4199L122.604 73.1509L122.603 88.1809L130.365 88.9119C131.376 93.7829 133.276 98.5079 136.1 102.809L131.143 108.796L141.771 119.424L147.758 114.467C152.059 117.291 156.784 119.191 161.656 120.202L162.387 127.963L177.416 127.962L178.147 120.202C183.02 119.19 187.744 117.29 192.045 114.466L198.032 119.423L208.66 108.795L203.703 102.807C206.527 98.5059 208.426 93.7819 209.438 88.9099L217.198 88.1789L217.199 73.1499L209.438 72.4189C208.426 67.5469 206.526 62.8229 203.702 58.5219L208.659 52.5349L198.031 41.9069L192.044 46.8639C187.742 44.0399 183.018 42.1389 178.146 41.1279L177.415 33.3669L162.385 33.3679L161.654 41.1289C156.782 42.1409 152.058 44.0399 147.757 46.8639L141.77 41.9069L131.142 52.5349L136.1 58.5219ZM184.29 66.2789C192.235 74.2239 192.235 87.1069 184.29 95.0529C176.344 102.999 163.461 102.998 155.516 95.0529C147.57 87.1069 147.57 74.2249 155.516 66.2789C163.461 58.3329 176.343 58.3329 184.29 66.2789Z" fill="#E0E0E0"/>
<path d="M169.011 163.805C165.342 169.392 162.876 175.528 161.561 181.858L151.48 182.807L151.479 202.33L161.562 203.28C162.875 209.608 165.343 215.745 169.012 221.333L162.573 229.11L176.378 242.915L184.155 236.476C189.742 240.144 195.879 242.612 202.208 243.926L203.157 254.008L222.68 254.007L223.63 243.927C229.959 242.612 236.096 240.145 241.683 236.477L249.46 242.916L263.265 229.111L256.826 221.333C260.494 215.746 262.961 209.609 264.275 203.281L274.355 202.331L274.356 182.808L264.275 181.858C262.961 175.53 260.492 169.393 256.824 163.806L263.263 156.028L249.458 142.223L241.681 148.662C236.093 144.993 229.956 142.525 223.629 141.211L222.679 131.13L203.156 131.131L202.207 141.212C195.878 142.526 189.742 144.993 184.155 148.661L176.378 142.222L162.572 156.028L169.011 163.805ZM231.608 173.881C241.928 184.202 241.929 200.937 231.608 211.258C221.286 221.58 204.551 221.579 194.231 211.258C183.909 200.936 183.91 184.203 194.231 173.881C204.552 163.56 221.286 163.559 231.608 173.881Z" fill="#EBEBEB"/>
<path d="M227.003 83.6018C225.562 85.7968 224.593 88.2068 224.076 90.6938L220.116 91.0668V98.7358L224.077 99.1088C224.593 101.595 225.562 104.005 227.003 106.201L224.474 109.256L229.897 114.679L232.952 112.15C235.147 113.591 237.558 114.56 240.044 115.076L240.417 119.037H248.086L248.459 115.077C250.945 114.561 253.356 113.591 255.551 112.15L258.606 114.679L264.029 109.256L261.5 106.201C262.941 104.006 263.91 101.596 264.426 99.1088L268.386 98.7358V91.0668L264.426 90.6938C263.91 88.2078 262.94 85.7968 261.499 83.6028L264.028 80.5478L258.605 75.1248L255.55 77.6538C253.355 76.2128 250.944 75.2428 248.458 74.7268L248.085 70.7668H240.416L240.043 74.7268C237.557 75.2428 235.146 76.2118 232.952 77.6528L229.897 75.1228L224.474 80.5458L227.003 83.6018ZM251.593 87.5598C255.647 91.6138 255.647 98.1878 251.593 102.243C247.538 106.298 240.964 106.297 236.91 102.243C232.855 98.1878 232.855 91.6148 236.91 87.5598C240.965 83.5058 247.538 83.5058 251.593 87.5598Z" fill="#E6E6E6"/>
<path d="M262.468 48.0499C261.487 49.5439 260.828 51.1839 260.476 52.8769L257.781 53.1309V58.3509L260.477 58.6049C260.828 60.2969 261.488 61.9379 262.469 63.4319L260.747 65.5109L264.438 69.2019L266.517 67.4809C268.011 68.4619 269.652 69.1209 271.344 69.4729L271.598 72.1689H276.818L277.072 69.4739C278.764 69.1219 280.405 68.4629 281.899 67.4819L283.978 69.2029L287.669 65.5119L285.948 63.4329C286.929 61.9389 287.588 60.2979 287.94 58.6059L290.635 58.3519V53.1319L287.94 52.8779C287.589 51.1859 286.929 49.5449 285.948 48.0519L287.669 45.9719L283.978 42.2809L281.899 44.0029C280.405 43.0219 278.764 42.3619 277.072 42.0109L276.818 39.3159H271.598L271.344 42.0109C269.652 42.3619 268.011 43.0219 266.517 44.0029L264.438 42.2809L260.747 45.9719L262.468 48.0499ZM279.204 50.7439C281.963 53.5029 281.963 57.9779 279.204 60.7369C276.444 63.4969 271.97 63.4959 269.21 60.7369C266.45 57.9769 266.45 53.5029 269.21 50.7439C271.97 47.9849 276.444 47.9839 279.204 50.7439Z" fill="#F0F0F0"/>
<path d="M424.167 161.568C423.186 163.062 422.527 164.702 422.175 166.395L419.48 166.649V171.869L422.176 172.123C422.527 173.815 423.187 175.456 424.168 176.95L422.446 179.029L426.137 182.72L428.216 180.999C429.71 181.98 431.351 182.64 433.043 182.991L433.297 185.687H438.517L438.771 182.992C440.463 182.64 442.104 181.981 443.598 181L445.677 182.721L449.368 179.03L447.647 176.951C448.628 175.457 449.287 173.816 449.639 172.124L452.334 171.87V166.65L449.639 166.396C449.288 164.704 448.628 163.063 447.647 161.57L449.369 159.49L445.678 155.799L443.599 157.521C442.105 156.54 440.464 155.88 438.772 155.529L438.518 152.834H433.298L433.044 155.529C431.352 155.88 429.711 156.54 428.217 157.521L426.138 155.799L422.447 159.49L424.167 161.568ZM440.903 164.262C443.662 167.021 443.662 171.496 440.903 174.255C438.143 177.015 433.669 177.014 430.909 174.255C428.149 171.495 428.149 167.021 430.909 164.262C433.67 161.503 438.144 161.502 440.903 164.262Z" fill="#F0F0F0"/>
<path d="M84.143 146.228C82.037 149.435 80.621 152.958 79.866 156.592L74.078 157.137V168.345L79.866 168.89C80.62 172.523 82.037 176.046 84.143 179.254L80.446 183.719L88.371 191.644L92.836 187.948C96.044 190.054 99.567 191.471 103.2 192.225L103.745 198.013L114.953 198.012L115.498 192.225C119.132 191.47 122.654 190.054 125.862 187.948L130.327 191.644L138.252 183.719L134.556 179.254C136.662 176.046 138.078 172.524 138.833 168.89L144.62 168.344L144.621 157.136L138.833 156.591C138.079 152.958 136.662 149.435 134.556 146.228L138.252 141.763L130.327 133.838L125.862 137.535C122.654 135.429 119.131 134.012 115.498 133.258L114.953 127.47L103.745 127.471L103.2 133.258C99.567 134.012 96.044 135.429 92.837 137.535L88.372 133.838L80.446 141.764L84.143 146.228ZM120.079 152.012C126.004 157.937 126.004 167.544 120.079 173.47C114.153 179.396 104.546 179.395 98.621 173.47C92.696 167.544 92.696 157.938 98.621 152.012C104.547 146.087 114.153 146.087 120.079 152.012Z" fill="#F0F0F0"/>
<path d="M193.91 284.883C191.804 288.09 190.388 291.613 189.633 295.247L183.845 295.792V307L189.633 307.545C190.387 311.178 191.804 314.701 193.91 317.909L190.213 322.374L198.139 330.299L202.604 326.603C205.812 328.709 209.335 330.125 212.968 330.88L213.513 336.668L224.721 336.667L225.266 330.88C228.9 330.125 232.422 328.709 235.63 326.603L240.095 330.299L248.02 322.373L244.324 317.908C246.43 314.7 247.846 311.178 248.6 307.544L254.387 306.998L254.388 295.79L248.6 295.245C247.846 291.612 246.429 288.089 244.323 284.882L248.02 280.417L240.095 272.492L235.63 276.188C232.422 274.082 228.899 272.665 225.266 271.911L224.721 266.123L213.513 266.124L212.968 271.911C209.335 272.665 205.812 274.082 202.605 276.188L198.14 272.491L190.214 280.417L193.91 284.883ZM229.846 290.667C235.771 296.592 235.771 306.199 229.846 312.125C223.92 318.051 214.313 318.05 208.388 312.125C202.462 306.199 202.463 296.593 208.388 290.667C214.314 284.742 223.92 284.742 229.846 290.667Z" fill="#F0F0F0"/>
<path d="M80.718 241.584C66.76 257.911 62.683 282.079 70.513 302.081C79.213 294.316 85.339 282.481 85.727 272.129C86.115 261.777 83.406 251.588 80.718 241.584Z" fill="#E6E6E6"/>
<path d="M78.284 303.968C73.548 311.225 71.281 320.062 71.939 328.703C79.485 326.076 86.137 317.553 90.125 310.629C94.113 303.706 96.343 295.93 98.372 288.202C90.196 291.078 83.02 296.711 78.284 303.968Z" fill="#E6E6E6"/>
<path d="M76.4581 270.073C70.8541 290.23 67.9931 311.131 68.0081 332.054C68.0121 338.01 68.2551 343.963 68.7191 349.901C68.7561 350.379 69.5071 350.383 69.4691 349.901C67.8381 329.028 69.048 307.959 73.103 287.417C74.241 281.652 75.6071 275.934 77.1811 270.273C77.3111 269.806 76.5871 269.608 76.4581 270.073Z" fill="#E0E0E0"/>
<path d="M69.0491 335.552C74.7791 321.922 82.3061 309.158 91.0051 297.22C91.2901 296.829 90.6391 296.455 90.3571 296.841C81.6161 308.837 74.0831 321.659 68.3251 335.353C68.1391 335.797 68.8641 335.991 69.0491 335.552Z" fill="#E0E0E0"/>
<path d="M60.839 315.275C64.788 321.326 66.679 328.695 66.13 335.9C59.838 333.71 54.292 326.602 50.966 320.83C47.641 315.057 45.781 308.573 44.09 302.129C50.906 304.527 56.89 309.224 60.839 315.275Z" fill="#E6E6E6"/>
<path d="M68.878 340.651C64.171 329.464 57.964 319.098 50.826 309.301C50.545 308.915 49.893 309.289 50.178 309.68C57.274 319.419 63.475 329.727 68.155 340.85C68.339 341.289 69.065 341.096 68.878 340.651Z" fill="#E0E0E0"/>
<path d="M69.076 344.45C77.955 335.316 87.0201 326.364 95.9 317.23C96.237 316.884 95.7071 316.353 95.3701 316.7C86.4911 325.834 77.426 334.786 68.546 343.92C68.209 344.266 68.739 344.797 69.076 344.45Z" fill="#E0E0E0"/>
<path d="M96.172 312.971C88.469 320.4 81.45 328.539 75.235 337.251H76.645C82.508 336.976 88.2 334.084 91.878 329.51C95.556 324.936 97.16 318.757 96.172 312.971Z" fill="#E6E6E6"/>
<path d="M59.631 295.298C62.939 300.707 66.055 306.231 68.974 311.859C69.196 312.288 69.844 311.909 69.622 311.481C66.702 305.853 63.586 300.329 60.278 294.92C60.027 294.508 59.378 294.885 59.631 295.298Z" fill="#E0E0E0"/>
<path d="M51.73 267.943C50.469 273.617 49.218 280.995 49.205 286.903C49.192 292.811 50.995 298.576 54.352 302.535C57.709 306.494 64.487 308.228 67.219 305.963L51.73 267.943Z" fill="#E6E6E6"/>
<path d="M87.048 347.026H51.557V353.262H87.048V347.026Z" fill="#E0E0E0"/>
<path d="M79.758 375.48H58.863L55.065 351.833H82.758L79.758 375.48Z" fill="#E0E0E0"/>
<path d="M439.848 241.584C425.89 257.911 421.813 282.079 429.643 302.081C438.343 294.316 444.469 282.481 444.857 272.129C445.244 261.777 442.535 251.588 439.848 241.584Z" fill="#E6E6E6"/>
<path d="M437.413 303.968C432.677 311.225 430.41 320.062 431.068 328.703C438.614 326.076 445.266 317.553 449.254 310.629C453.242 303.706 455.472 295.93 457.501 288.202C449.325 291.078 442.149 296.711 437.413 303.968Z" fill="#E6E6E6"/>
<path d="M435.587 270.073C429.983 290.23 427.122 311.131 427.137 332.054C427.141 338.01 427.384 343.963 427.848 349.901C427.885 350.379 428.636 350.383 428.598 349.901C426.967 329.028 428.177 307.959 432.232 287.417C433.37 281.652 434.736 275.934 436.31 270.273C436.44 269.806 435.716 269.608 435.587 270.073Z" fill="#E0E0E0"/>
<path d="M428.178 335.552C433.908 321.922 441.435 309.158 450.134 297.22C450.419 296.829 449.768 296.455 449.486 296.841C440.745 308.837 433.212 321.659 427.454 335.353C427.268 335.797 427.993 335.991 428.178 335.552Z" fill="#E0E0E0"/>
<path d="M419.968 315.275C423.917 321.326 425.808 328.695 425.259 335.9C418.967 333.71 413.421 326.602 410.095 320.83C406.769 315.057 404.91 308.573 403.218 302.129C410.035 304.527 416.019 309.224 419.968 315.275Z" fill="#E6E6E6"/>
<path d="M428.007 340.651C423.3 329.464 417.093 319.098 409.955 309.301C409.674 308.915 409.023 309.289 409.307 309.68C416.403 319.419 422.604 329.727 427.284 340.85C427.468 341.289 428.194 341.096 428.007 340.651Z" fill="#E0E0E0"/>
<path d="M428.205 344.45C437.084 335.316 446.149 326.364 455.029 317.23C455.366 316.884 454.836 316.353 454.499 316.7C445.62 325.834 436.555 334.786 427.675 343.92C427.338 344.266 427.868 344.797 428.205 344.45Z" fill="#E0E0E0"/>
<path d="M455.301 312.971C447.598 320.4 440.579 328.539 434.364 337.251H435.773C441.636 336.976 447.328 334.084 451.006 329.51C454.685 324.936 456.289 318.757 455.301 312.971Z" fill="#E6E6E6"/>
<path d="M418.76 295.298C422.067 300.707 425.184 306.231 428.104 311.859C428.326 312.288 428.974 311.909 428.752 311.481C425.832 305.853 422.716 300.329 419.408 294.92C419.156 294.508 418.507 294.885 418.76 295.298Z" fill="#E0E0E0"/>
<path d="M410.859 267.943C409.598 273.617 408.347 280.995 408.334 286.903C408.321 292.811 410.124 298.576 413.481 302.535C416.838 306.494 423.616 308.228 426.348 305.963L410.859 267.943Z" fill="#E6E6E6"/>
<path d="M446.177 347.026H410.686V353.262H446.177V347.026Z" fill="#E0E0E0"/>
<path d="M438.887 375.48H417.992L414.194 351.833H441.887L438.887 375.48Z" fill="#E0E0E0"/>
<path d="M197.206 438.173C197.206 445.061 170.257 450.644 137.013 450.644C103.769 450.644 76.82 445.06 76.82 438.173C76.82 431.285 103.769 425.701 137.013 425.701C170.257 425.701 197.206 431.285 197.206 438.173Z" fill="#F5F5F5"/>
<path d="M287.36 481.631C318.463 481.631 343.677 476.047 343.677 469.159C343.677 462.271 318.463 456.687 287.36 456.687C256.257 456.687 231.043 462.271 231.043 469.159C231.043 476.047 256.257 481.631 287.36 481.631Z" fill="#F5F5F5"/>
<path d="M444.228 418.343C444.228 425.948 418.983 432.114 387.841 432.114C356.699 432.114 331.454 425.949 331.454 418.343C331.454 410.737 356.699 404.572 387.841 404.572C418.983 404.572 444.228 410.737 444.228 418.343Z" fill="#F5F5F5"/>
<path d="M307.043 89.3819C314.858 80.6489 314.115 67.2339 305.382 59.4179C296.649 51.6019 283.234 52.3459 275.418 61.0789C269.385 67.8209 268.474 77.3449 272.381 84.9369L270.096 90.8869L276.829 90.7949C276.916 90.8749 276.991 90.9629 277.079 91.0429C285.812 98.8589 299.227 98.1159 307.043 89.3819Z" fill="#407BFF"/>
<path d="M303.221 54.1338C309.392 57.2188 313.801 63.5818 314.522 70.4428" stroke="#407BFF" stroke-width="0.5" stroke-miterlimit="10" stroke-linecap="round" stroke-linejoin="round"/>
<path d="M314.741 73.6018C314.928 74.6368 314.899 75.7118 314.655 76.7348" stroke="#407BFF" stroke-width="0.5" stroke-miterlimit="10" stroke-linecap="round" stroke-linejoin="round"/>
<path d="M290.811 84.2669L281.085 77.0249L283.613 73.6309L290.134 78.4869L299.095 67.7969L302.338 70.5149L290.811 84.2669Z" fill="white"/>
<path d="M253.135 132.075C253.135 132.075 274.156 159.099 280.595 163.204C287.034 167.309 308.434 181.94 308.434 181.94L315.438 167.903L281.825 150.001L260.304 127.964L253.135 132.075Z" fill="#BF5E60"/>
<path d="M253.135 132.075C253.135 132.075 250.844 130.199 250.529 126.471C250.214 122.743 252.421 106.325 253.998 106.493C255.575 106.661 255.154 107.712 255.575 112.757C255.995 117.802 257.257 123.219 257.257 123.219L260.305 127.963L253.135 132.075Z" fill="#BF5E60"/>
<path d="M252.515 129.089C251.057 126.662 252.644 122.458 252.279 119.65C252.175 118.854 252.076 118.017 252.372 117.27C252.668 116.523 253.503 115.925 254.264 116.182C255.003 116.431 255.303 117.295 255.505 118.049C256.013 119.949 256.522 121.849 257.03 123.749" stroke="#A74145" stroke-width="0.5" stroke-miterlimit="10"/>
<path d="M347.67 390.565L352.922 402.726L362.693 400.709L359.289 386.906L347.67 390.565Z" fill="#BF5E60"/>
<path d="M350.231 401.384C350.051 400.895 350.356 400.362 350.847 400.224L353.751 399.407C354.479 399.183 355.654 400.293 356.27 400.759C358.923 402.772 360.016 401.366 361.285 398.315C362.521 397.767 363.33 399.163 363.559 399.534L368.717 407.715C369.156 408.396 368.972 409.302 368.307 409.741C368.189 409.819 368.06 409.879 367.924 409.918C364.016 411.121 362.167 411.691 357.303 413.188L342.428 417.768C338.373 419.017 336.247 415.109 337.799 414.209C344.788 410.204 349.412 406.313 351.046 403.37C351.28 402.977 350.56 402.281 350.231 401.384Z" fill="#263238"/>
<path d="M349.737 404.584C350.893 404.397 352.129 404.756 353.023 405.537" stroke="white" stroke-width="0.5" stroke-miterlimit="10" stroke-linecap="round" stroke-linejoin="round"/>
<path d="M348.01 406.508C349.166 406.321 350.403 406.68 351.297 407.461" stroke="white" stroke-width="0.5" stroke-miterlimit="10" stroke-linecap="round" stroke-linejoin="round"/>
<path d="M345.795 408.599C346.951 408.412 348.188 408.771 349.081 409.552" stroke="white" stroke-width="0.5" stroke-miterlimit="10" stroke-linecap="round" stroke-linejoin="round"/>
<path d="M414.968 364.186L425.64 371.837L433.043 365.063L423.097 355.018L414.968 364.186Z" fill="#BF5E60"/>
<path d="M422.541 372.177C422.139 371.853 422.124 371.233 422.47 370.853L424.513 368.606C425.015 368.026 426.579 368.353 427.338 368.427C430.615 368.744 430.822 366.954 430.336 363.658C431.103 362.53 432.502 363.298 432.886 363.495L441.442 367.777C442.162 368.128 442.471 369.005 442.131 369.735C442.071 369.865 441.992 369.985 441.897 370.091C439.202 373.204 437.927 374.678 434.573 378.553L424.315 390.405C421.519 393.636 417.719 391.411 418.572 389.812C422.443 382.652 424.369 376.848 424.248 373.451C424.245 372.987 423.279 372.773 422.541 372.177Z" fill="#263238"/>
<path d="M423.892 375.128C424.776 374.352 426.007 374.002 427.164 374.198" stroke="white" stroke-width="0.5" stroke-miterlimit="10" stroke-linecap="round" stroke-linejoin="round"/>
<path d="M423.413 377.699C424.297 376.923 425.528 376.573 426.685 376.769" stroke="white" stroke-width="0.5" stroke-miterlimit="10" stroke-linecap="round" stroke-linejoin="round"/>
<path d="M422.608 380.675C423.492 379.899 424.723 379.549 425.88 379.744" stroke="white" stroke-width="0.5" stroke-miterlimit="10" stroke-linecap="round" stroke-linejoin="round"/>
<path d="M360.214 387.06L345.795 392.625L325.15 337.497C324.425 335.562 324.028 333.523 323.974 331.458C323.524 314.249 321.548 232.121 321.548 232.121C348.9 207.247 355.043 250.687 354.863 251.282C353.059 256.995 347.903 332.795 347.903 332.795C347.903 332.795 360.527 373.237 360.214 387.06Z" fill="#263238"/>
<path d="M321.352 231.995L321.707 232.585C326.997 239.744 337.022 247.367 342.26 253.907L344.083 258.032C344.083 258.032 382.226 228.463 357.434 216.279C356.404 215.772 348.815 211.715 348.815 211.715C342.247 210.103 321.352 231.995 321.352 231.995Z" fill="#263238"/>
<path d="M378.348 258.129C380.424 271.045 386.873 304.405 390.526 316.956C390.526 316.956 401.764 323.387 408.119 330.582L428.401 359.137L419.352 367.26L382.362 340.202C373.999 333.905 370.611 329.239 367.33 323.097C359.303 308.1 355.341 288.999 350.55 273.905C348.332 266.905 339.808 244.358 340.535 237.108C341.504 227.295 341.851 211.427 353.773 216.823C365.179 220.174 371.942 222.305 378.348 258.129Z" fill="#263238"/>
<path opacity="0.2" d="M349.982 277.288L340.601 242.637L329.904 239.069L338.254 246.853L349.982 277.288Z" fill="black"/>
<path d="M357.09 210.221C354.118 206.815 352.177 202.635 351.49 198.167C350.442 191.355 349.011 181.834 349.172 181.088L349.638 162.718C345.578 158.658 330.505 158.616 330.505 158.616L320.394 161.194C320.394 161.194 316.639 162.847 313.492 164.608C309.291 166.96 307.082 167.083 306.504 169.786C306.504 169.786 305.678 178.641 305.452 187.617C305.371 190.82 320.238 220.259 320.427 225.804L320.431 234.831C341.981 245.686 364.619 218.849 364.619 218.849L357.09 210.221Z" fill="#407BFF"/>
<path opacity="0.3" d="M350.003 188.239C350.003 188.239 340.556 179.709 341.035 175.717L349.068 180.033L349.606 185.438L350.003 188.239Z" fill="black"/>
<path d="M356.929 170.735C357.148 171.059 370.829 186.459 376.327 192.289C377.506 193.539 378.418 195.013 379.012 196.626L390.292 228.15L383.227 230.263L367.012 199.772L346.632 182.53L356.929 170.735Z" fill="#BF5E60"/>
<path d="M382.961 227.734C382.961 227.734 381.074 229.89 381.258 232.252C381.443 234.614 380.962 236.549 381.22 238.296C381.479 240.043 382.755 238.03 383.218 236.822C383.68 235.614 384.217 234.25 385.068 234.744C385.919 235.238 390.155 242.567 391.413 243.117C392.671 243.668 392.357 242.268 392.357 242.268C392.357 242.268 393.434 244.02 394.244 243.783C394.454 243.721 394.844 243.237 394.478 242.361C393.656 240.392 391.717 236.347 391.717 236.347C391.824 236.581 394.573 241.402 395.079 242.071C395.74 242.944 396.498 243.019 396.992 242.619C397.695 242.05 394.49 235.956 394.535 235.605C394.535 235.605 396.263 239.175 397.428 239.233C398.594 239.291 397.629 236.985 396.392 235.113C395.258 233.397 393.482 229.733 392.16 228.101C390.531 226.089 388.985 225.104 386.635 225.715C384.285 226.326 382.961 227.734 382.961 227.734Z" fill="#BF5E60"/>
<path d="M347.044 161.334C351.626 161.628 359.944 173.085 359.944 173.085L349.174 185.257C349.174 185.257 339.071 176.438 338.898 170.536C338.765 165.548 341.224 160.951 347.044 161.334Z" fill="#407BFF"/>
<path d="M314.368 164.552C314.368 164.552 298.387 158.625 298.648 158.809C298.909 158.993 292.214 173.911 292.214 173.911L307.802 184.436L314.368 164.552Z" fill="#407BFF"/>
<path d="M362.715 147.581C367.616 144.935 370.322 138.775 368.955 133.375C366.104 134.636 363.223 135.907 360.164 136.511C357.105 137.115 353.809 137.003 351.029 135.59C348.936 134.526 347.267 132.805 345.569 131.183C343.871 129.561 342.032 127.968 339.792 127.266C337.551 126.565 334.805 126.975 333.358 128.825L330.222 133.778C332.274 133.307 334.427 134.54 335.61 136.281C336.793 138.022 337.189 140.172 337.418 142.264C337.647 144.356 337.745 146.492 338.434 148.481C339.316 151.026 341.125 153.17 343.233 154.846C347.913 158.566 354.312 160.12 360.12 158.702C365.928 157.285 370.967 152.84 372.856 147.168C369.53 147.863 366.087 148.003 362.715 147.581Z" fill="#263238"/>
<path d="M316.178 124.345C316.178 124.345 308.662 137.89 308.306 142.103C305.429 144.553 303.384 139.585 303.492 132.929C303.58 127.48 306.422 121.6 311.131 119.483C317.745 116.508 316.178 124.345 316.178 124.345Z" fill="#263238"/>
<path d="M315.828 170.735C315.828 170.735 313.804 164.492 315.652 163.457C316.911 162.2 318.55 160.733 318.311 158.903C318.145 157.496 317.691 156.034 317.15 154.61L319.028 152.568L328.798 143.398C328.332 149.741 325.663 154.989 330.503 158.617" fill="#BF5E60"/>
<path opacity="0.2" d="M318.368 159.447C321.016 158.002 323.957 155.436 323.727 152.374C323.622 151.084 323.389 149.858 323.109 149.067L317.591 155.847C317.983 156.986 318.114 157.735 318.368 159.447Z" fill="black"/>
<path d="M331.838 133.289C330.6 142.941 330.28 147.042 325.098 151.938C317.304 159.304 305.832 156.315 304.19 146.643C302.711 137.938 304.985 123.616 314.64 119.891C324.152 116.222 333.076 123.637 331.838 133.289Z" fill="#BF5E60"/>
<path d="M318.704 136.691C318.696 137.6 318.175 138.371 317.538 138.414C316.902 138.457 316.393 137.756 316.401 136.848C316.409 135.939 316.931 135.168 317.566 135.124C318.202 135.081 318.711 135.783 318.704 136.691Z" fill="#263238"/>
<path d="M309.489 135.985C309.532 136.864 309.055 137.643 308.425 137.724C307.795 137.805 307.249 137.157 307.206 136.278C307.163 135.399 307.639 134.62 308.27 134.539C308.9 134.458 309.446 135.105 309.489 135.985Z" fill="#263238"/>
<path d="M321.281 133.572C321.157 133.58 321.034 133.538 320.942 133.446C319.514 131.996 317.813 132.404 317.793 132.409C317.541 132.47 317.296 132.317 317.25 132.061C317.206 131.805 317.376 131.546 317.631 131.481C317.72 131.459 319.855 130.946 321.627 132.746C321.804 132.925 321.793 133.228 321.604 133.422C321.514 133.513 321.397 133.565 321.281 133.572Z" fill="#263238"/>
<path d="M306.273 131.59C306.161 131.553 306.065 131.476 306.012 131.367C305.901 131.141 306.01 130.862 306.253 130.745C308.697 129.566 310.602 130.588 310.682 130.634C310.908 130.759 310.975 131.04 310.831 131.262C310.688 131.484 310.388 131.562 310.162 131.439C310.088 131.398 308.598 130.626 306.655 131.564C306.529 131.623 306.391 131.629 306.273 131.59Z" fill="#263238"/>
<path d="M307.07 122.766C309.119 118.507 317.465 114.55 327.062 118.662C341.377 123.51 334.514 146.728 330.223 142.136C329.056 140.887 328.072 139.649 327.244 138.457C322.264 131.294 315.309 125.735 307.101 122.777L307.07 122.766Z" fill="#263238"/>
<path d="M334.482 141.288C333.266 143.233 331.362 144.412 329.642 144.778C327.055 145.328 325.881 141.158 326.849 138.622C327.721 136.339 330.295 134.9 332.771 135.494C335.211 136.08 335.872 139.064 334.482 141.288Z" fill="#BF5E60"/>
<path d="M312.246 135.233C312.246 135.233 310.599 138.803 308.808 141.001C308.495 141.385 308.659 141.968 309.117 142.156C310.297 142.639 311.711 142.292 311.711 142.292L312.246 135.233Z" fill="#A74145"/>
<path d="M317.759 135.093L315.513 134.673C315.513 134.673 316.806 136.273 317.759 135.093Z" fill="#263238"/>
<path d="M308.595 134.55L306.328 134.264C307.432 135.475 308.311 134.948 308.595 134.55Z" fill="#263238"/>
<path opacity="0.2" d="M330.921 137.905C331.742 137.59 332.594 138.133 332.864 138.811C333.19 139.632 332.739 141.538 330.224 142.137" stroke="black" stroke-width="0.5" stroke-miterlimit="10" stroke-linecap="round" stroke-linejoin="round"/>
<path d="M310.821 145.456C311.548 146.524 312.439 148.605 312.439 148.605C312.642 148.558 312.845 148.512 313.045 148.454C315.783 147.751 316.821 146.52 317.141 145.369C317.314 144.739 317.264 144.126 317.16 143.644C317.046 143.084 316.837 142.711 316.837 142.711C315.608 143.951 313.106 144.802 311.751 145.202C311.185 145.374 310.821 145.456 310.821 145.456Z" fill="#263238"/>
<path d="M311.751 145.202L312.252 146.118C314.829 145.45 316.554 144.633 317.161 143.644C317.047 143.084 316.838 142.711 316.838 142.711C315.608 143.951 313.106 144.802 311.751 145.202Z" fill="white"/>
<path d="M313.045 148.454C315.783 147.751 316.821 146.52 317.141 145.369C316.217 145.644 315.134 146.079 314.256 146.752C313.582 147.264 313.233 147.876 313.045 148.454Z" fill="#FB504E"/>
<path d="M132.977 177.422C132.977 177.422 118.237 200.76 115.496 212.56C114.009 218.962 122.336 248.368 122.336 248.368L130.721 247.205C130.721 247.205 126.303 217.21 127.879 214.315C132.621 205.603 147.352 186.805 147.125 186.241C146.896 185.679 132.977 177.422 132.977 177.422Z" fill="#FDAC6D"/>
<path d="M122.64 256.921C123.577 259.1 124.868 261.926 125.984 262.2C127.1 262.473 127.415 261.587 128.125 261.578C128.835 261.569 129.739 262.379 130.99 260.897C130.99 260.897 133.514 261.91 134.261 260.118C136.034 259.946 136.516 258.893 136.199 256.999C136.101 256.548 135.01 254.044 134.957 253.576C135.129 253.672 136.794 256.366 137.04 256.444C139.124 257.108 140.167 256.805 140.187 255.826C140.197 255.321 139.889 254.863 139.447 254.62C138.364 254.025 137.984 249.645 136.718 248.901C135.656 248.277 131.994 246.408 130.477 246.017C128.96 245.626 122.779 247.321 122.779 247.321C122.779 247.321 121.703 254.742 122.64 256.921Z" fill="#FDAC6D"/>
<path d="M184.337 163.403C184.337 163.403 205.756 157.591 211.332 153.579C216.908 149.567 226.871 122.228 226.871 122.228L234.275 122.348C234.275 122.348 228.677 153.695 223.625 160.269C218.573 166.843 193.167 178.994 193.167 178.994L184.337 163.403Z" fill="#FDAC6D"/>
<path d="M227.534 123.281C227.534 123.281 224.796 121.277 224.4 118.5C224.004 115.723 222.948 113.611 222.796 111.526C222.644 109.441 224.639 111.436 225.485 112.713C226.331 113.989 227.304 115.427 228.16 114.637C229.016 113.846 232.018 104.284 233.329 103.323C234.64 102.361 234.638 104.06 234.638 104.06C234.638 104.06 235.43 101.757 236.427 101.822C236.686 101.839 237.261 102.299 237.065 103.405C236.623 105.893 235.428 111.066 235.428 111.066C235.491 110.768 237.423 104.487 237.835 103.584C238.374 102.404 239.23 102.122 239.903 102.457C240.862 102.933 238.732 110.802 238.874 111.196C238.874 111.196 239.949 106.625 241.281 106.257C242.613 105.889 242.093 108.803 241.147 111.286C240.279 113.562 239.174 118.254 238.067 120.482C236.704 123.227 235.172 124.765 232.299 124.665C229.427 124.565 227.534 123.281 227.534 123.281Z" fill="#FDAC6D"/>
<path d="M174.396 424.122L184.072 425.638L192.224 405.144L179.523 401.085L174.396 424.122Z" fill="#FDAC6D"/>
<path d="M185.265 423.988L182.206 423.104C181.514 422.904 180.772 423.069 180.202 423.509C177.742 425.408 176.679 424.114 175.416 421.295C174.237 420.8 173.504 422.105 173.296 422.452L168.605 430.109C168.205 430.746 168.398 431.587 169.035 431.986C169.148 432.057 169.271 432.111 169.401 432.146C173.115 433.22 174.873 433.728 179.496 435.064L193.635 439.151C197.489 440.265 199.411 436.612 197.927 435.793C191.244 432.152 186.796 428.589 185.189 425.875C184.885 425.393 185.384 425.243 185.265 423.988Z" fill="#263238"/>
<path d="M191.219 428.272C191.608 428.134 191.908 427.819 192.027 427.424C192.116 427.219 192.079 426.981 191.933 426.813C191.171 425.857 186.83 426.539 186.34 426.624C186.287 426.627 186.239 426.654 186.208 426.697C186.151 426.776 186.168 426.886 186.248 426.944C187.124 427.438 188.048 427.84 189.007 428.142C189.711 428.419 190.486 428.465 191.219 428.272ZM191.61 427.032C191.674 427.103 191.687 427.206 191.644 427.291C191.545 427.573 191.33 427.798 191.054 427.91C189.998 428.308 187.982 427.422 186.914 426.886C188.703 426.646 191.187 426.51 191.61 427.032Z" fill="#407BFF"/>
<path d="M186.366 427.02C187.653 426.873 190.605 425.681 190.763 424.645C190.804 424.43 190.726 424.137 190.227 423.917C188.199 423.071 186.213 426.576 186.166 426.736C186.127 426.795 186.126 426.871 186.164 426.93C186.2 426.953 186.241 426.965 186.284 426.965L186.366 427.02ZM190.068 424.206C190.446 424.358 190.406 424.498 190.391 424.548C190.325 425.189 188.124 426.251 186.685 426.549C187.199 425.745 188.602 423.771 189.93 424.155L190.068 424.206Z" fill="#407BFF"/>
<path d="M186.706 426.962C185.611 426.801 184.452 427.148 183.625 427.884" stroke="#407BFF" stroke-width="0.5" stroke-miterlimit="10" stroke-linecap="round" stroke-linejoin="round"/>
<path d="M188.194 428.943C187.099 428.782 185.94 429.129 185.113 429.865" stroke="#407BFF" stroke-width="0.5" stroke-miterlimit="10" stroke-linecap="round" stroke-linejoin="round"/>
<path d="M190.211 430.829C189.116 430.668 187.957 431.015 187.13 431.751" stroke="#407BFF" stroke-width="0.5" stroke-miterlimit="10" stroke-linecap="round" stroke-linejoin="round"/>
<path d="M87.719 390.758L96.809 394.405L109.35 376.262L97.883 369.458L87.719 390.758Z" fill="#FDAC6D"/>
<path d="M98.342 393.065L95.56 391.517C94.93 391.167 94.171 391.161 93.516 391.462C90.692 392.761 89.947 391.262 89.348 388.231C88.31 387.485 87.303 388.592 87.023 388.883L80.734 395.292C80.202 395.823 80.201 396.686 80.733 397.218C80.827 397.312 80.935 397.393 81.053 397.456C84.432 399.335 86.031 400.225 90.236 402.564L103.098 409.718C106.604 411.668 109.296 408.539 108.034 407.409C102.338 402.361 98.802 397.892 97.845 394.886C97.657 394.349 98.176 394.315 98.342 393.065Z" fill="#263238"/>
<path d="M103.183 398.575C103.593 398.527 103.956 398.288 104.161 397.929C104.293 397.749 104.311 397.51 104.207 397.312C103.679 396.209 99.295 395.9 98.799 395.874C98.747 395.865 98.694 395.881 98.654 395.915C98.581 395.979 98.573 396.091 98.637 396.164C99.379 396.842 100.19 397.441 101.057 397.95C101.681 398.38 102.426 398.599 103.183 398.575ZM103.842 397.455C103.889 397.538 103.879 397.642 103.817 397.715C103.657 397.967 103.398 398.139 103.103 398.186C101.984 398.337 100.218 397.021 99.298 396.26C101.095 396.427 103.547 396.851 103.842 397.455Z" fill="#407BFF"/>
<path d="M98.734 396.267C100.021 396.412 103.165 395.913 103.552 394.939C103.64 394.738 103.63 394.436 103.193 394.109C101.407 392.83 98.685 395.8 98.604 395.945C98.553 395.993 98.535 396.067 98.559 396.134C98.588 396.164 98.626 396.185 98.668 396.195L98.734 396.267ZM102.973 394.355C103.307 394.588 103.236 394.716 103.211 394.761C103.003 395.371 100.62 395.913 99.151 395.881C99.832 395.213 101.643 393.604 102.851 394.276L102.973 394.355Z" fill="#407BFF"/>
<path d="M99.079 396.287C98.048 395.885 96.84 395.963 95.869 396.495" stroke="#407BFF" stroke-width="0.5" stroke-miterlimit="10" stroke-linecap="round" stroke-linejoin="round"/>
<path d="M100.084 398.55C99.053 398.148 97.845 398.226 96.874 398.758" stroke="#407BFF" stroke-width="0.5" stroke-miterlimit="10" stroke-linecap="round" stroke-linejoin="round"/>
<path d="M101.627 400.841C100.596 400.439 99.388 400.517 98.417 401.049" stroke="#407BFF" stroke-width="0.5" stroke-miterlimit="10" stroke-linecap="round" stroke-linejoin="round"/>
<path d="M88.317 381.101L104.871 391.477C104.871 391.477 142.818 340.202 149.893 327.048C156.968 313.894 171.32 279.564 171.32 279.564L171.293 279.631C171.631 280.625 172.983 290.967 176.125 301.429C180.228 315.114 184.553 329.867 185.392 333.692C187.832 344.956 173.497 415.179 173.497 415.179L190.918 420.073C190.918 420.073 211.746 349.247 212.715 339.685C214.975 317.379 197.737 261.96 197.253 259.123C196.627 255.499 195.926 244.511 195.926 244.511L150.327 232.559C150.327 232.559 147.015 238.809 144.79 244.541C136.455 266.052 129.805 305.284 127.435 313.369C115.086 328.712 88.317 381.101 88.317 381.101Z" fill="#263238"/>
<path opacity="0.2" d="M174.183 274.365L171.292 279.631C171.39 280.841 174.546 297.707 176.007 300.706C180.645 292.359 180.1 281.858 174.183 274.365Z" fill="black"/>
<path d="M179.036 181.095C185.775 185.846 210.293 178.063 210.293 178.063L206.924 156.398C206.924 156.398 196.894 158.768 186.371 161.856C179.216 163.922 171.635 175.928 179.036 181.095Z" fill="#407BFF"/>
<path d="M141.152 164.244C142.844 173.892 140.759 183.616 140.981 193.408C141.172 200.259 141.171 207.025 140.924 212.932C140.374 226.746 138.436 244.669 138.514 248.263C156.235 242.126 192.606 269.138 206.034 253.929C193.785 210.178 190.643 160.63 190.643 160.63C185.628 160.63 182.787 162.423 179.064 161.978C178.278 161.888 177.48 161.809 176.66 161.742C170.001 161.441 163.329 161.524 156.68 161.989C155.422 162.068 154.142 162.18 152.895 162.303C146.517 162.922 141.152 164.244 141.152 164.244Z" fill="#407BFF"/>
<path opacity="0.2" d="M148.867 184.942C148.258 192.182 145.597 199.097 141.196 204.878C141.196 203.541 141.196 202.183 141.129 200.812C140.983 195.668 140.668 190.333 140.107 184.931L148.867 184.942Z" fill="black"/>
<path d="M141.895 164.074C133.539 165.264 116.763 193.835 116.763 193.835L138.462 205.954C138.462 205.954 145.853 190.741 151.255 181.138C157.13 170.681 152.003 162.636 141.895 164.074Z" fill="#407BFF"/>
<path opacity="0.2" d="M192.676 182.115C192.676 182.115 190.497 173.136 190.628 171.83C190.757 170.548 197.363 181.327 197.363 181.327C195.889 181.678 192.676 182.115 192.676 182.115Z" fill="black"/>
<path d="M183.227 122.836L184.237 123.429C185.419 123.453 186.53 124.346 186.807 125.496C187.084 126.645 186.503 127.947 185.462 128.507C185.305 128.591 185.124 128.678 185.069 128.847C184.98 129.118 185.264 129.349 185.48 129.535C186.542 130.453 186.411 132.278 185.456 133.307C184.501 134.336 182.983 134.668 181.584 134.557C181.217 130.607 183.567 126.787 183.227 122.836Z" fill="#263238"/>
<path d="M153.156 133.951C151.653 134.023 150.15 133.096 149.541 131.719C149.373 131.338 149.268 130.916 149.337 130.506C149.524 129.395 150.799 128.886 151.884 128.579C150.672 128.283 149.86 127.078 149.627 125.853C149.521 125.292 149.512 124.703 149.694 124.162C150 123.252 150.815 122.585 151.705 122.226C152.596 121.867 153.567 121.772 154.523 121.68L160.031 139.154C158.801 139.43 157.524 139.598 156.282 139.386C155.039 139.174 153.827 138.542 153.134 137.489C152.44 136.437 152.374 134.94 153.156 133.951Z" fill="#263238"/>
<path d="M174.53 161.66C172.53 158.815 173.273 154.768 173.764 153.374C174.009 152.594 174.307 151.831 174.657 151.092L160.169 138.534C161.081 145.073 164.001 157.513 158.918 161.848C158.918 161.848 169.563 169.287 172.199 166.743C174.834 164.2 174.53 161.66 174.53 161.66Z" fill="#FDAC6D"/>
<path opacity="0.2" d="M162.764 145.187C161.896 152.818 169.544 156.515 173.41 157.733C173.155 156.278 173.278 154.781 173.769 153.388L162.764 145.187Z" fill="black"/>
<path d="M157.685 132.833C159.474 141.849 160.295 146.97 165.647 150.985C173.697 157.025 184.452 151.513 185.474 142.126C186.394 133.676 183.315 120.351 173.667 117.998C164.162 115.679 155.897 123.817 157.685 132.833Z" fill="#FDAC6D"/>
<path d="M155.039 122.056C155.654 116.882 168.569 115.168 172.519 117.264C173.109 117.577 165.955 122.296 166.397 122.071L162.955 123.745C162.384 123.697 161.378 124.467 161.037 126.215C161.037 126.215 163.308 140.099 159.783 144.655C156.31 143.527 155.381 138.027 153.912 134.871C151.723 130.167 148.917 123.227 155.039 122.056Z" fill="#263238"/>
<path d="M155.003 140.886C156.063 143.13 158.096 144.676 160.072 145.333C163.044 146.322 163.689 143.222 163.042 140.392C162.46 137.845 161.266 134.804 158.197 135.041C155.173 135.274 153.79 138.32 155.003 140.886Z" fill="#FDAC6D"/>
<path d="M171.717 133.042C171.841 133.972 172.449 134.656 173.075 134.57C173.701 134.484 174.108 133.659 173.983 132.729C173.859 131.799 173.251 131.115 172.625 131.201C172 131.287 171.593 132.111 171.717 133.042Z" fill="#263238"/>
<path d="M180.841 132.746C180.965 133.676 181.573 134.36 182.199 134.274C182.825 134.187 183.232 133.363 183.108 132.433C182.984 131.503 182.376 130.819 181.75 130.905C181.123 130.992 180.716 131.816 180.841 132.746Z" fill="#263238"/>
<path d="M177.717 132.59C177.717 132.59 181.365 136.823 182.588 138.58C181.412 139.921 179.044 139.676 179.044 139.676L177.717 132.59Z" fill="#ED8640"/>
<path d="M168.501 129.654C168.653 129.693 168.823 129.653 168.942 129.535C170.364 128.133 172.001 128.423 172.017 128.426C172.262 128.472 172.502 128.317 172.552 128.08C172.602 127.843 172.444 127.613 172.2 127.566C172.114 127.549 170.063 127.185 168.299 128.926C168.123 129.1 168.124 129.377 168.301 129.545C168.36 129.6 168.428 129.636 168.501 129.654Z" fill="#263238"/>
<path opacity="0.2" d="M156.804 138.098C157.109 137.507 157.851 137.209 158.526 137.281C159.201 137.353 159.805 137.738 160.275 138.214C160.838 138.786 161.244 139.503 161.44 140.272" stroke="black" stroke-width="0.5" stroke-miterlimit="10" stroke-linecap="round" stroke-linejoin="round"/>
<path d="M184.459 128.255C184.54 128.227 184.614 128.176 184.669 128.104C184.819 127.909 184.781 127.633 184.583 127.487C182.597 126.028 180.644 126.721 180.553 126.741C180.319 126.826 180.197 127.079 180.281 127.307C180.364 127.535 180.62 127.651 180.853 127.57C180.933 127.538 182.445 127.023 184.038 128.194C184.163 128.285 184.322 128.303 184.459 128.255Z" fill="#263238"/>
<path d="M152.008 117.93C152.484 115.742 155.242 114.96 157.425 115.152C157.025 112.589 160.303 110.715 162.484 110.541C164.756 110.359 165.67 111.148 165.67 111.148C165.499 111.203 166.207 109.796 166.68 109.216C168.425 107.076 171.464 106.149 174.072 106.961C176.681 107.773 178.707 110.277 179.001 113.052C180.245 111.504 182.767 111.278 184.26 112.581C185.753 113.883 185.936 116.47 184.642 117.974C186.315 117.889 187.899 119.435 187.895 121.15C187.891 122.865 186.3 124.398 184.628 124.297C184.747 126.213 184.811 128.616 184.93 130.532L181.51 123.818C180.108 123.501 179.783 122.932 179.346 121.531C178.561 123.439 176.99 123.466 174.972 123.614C172.954 123.762 170.894 122.668 169.845 120.894C169.019 122.888 167.209 124.532 165.1 124.717C162.991 124.901 160.755 123.329 160.518 121.175C159.486 123.151 156.942 124.135 154.888 123.352C152.833 122.569 151.532 120.119 152.008 117.93Z" fill="#263238"/>
<path d="M178.699 142.763C177.922 143.765 177.219 144.821 176.595 145.924C176.387 145.848 176.172 145.775 175.967 145.689C173.132 144.609 172.169 143.176 171.977 141.907C171.894 141.285 171.958 140.652 172.164 140.059C172.272 139.722 172.427 139.402 172.623 139.108C173.785 140.58 176.342 141.788 177.74 142.376C178.354 142.6 178.699 142.763 178.699 142.763Z" fill="#263238"/>
<path d="M177.774 142.358L177.127 143.274C174.466 142.253 172.729 141.185 172.197 140.041C172.305 139.704 172.46 139.384 172.656 139.09C173.825 140.576 176.376 141.771 177.774 142.358Z" fill="white"/>
<path d="M176.001 145.672C173.166 144.592 172.203 143.159 172.011 141.89C173.081 142.32 174.066 142.936 174.921 143.709C175.477 144.234 175.854 144.921 176.001 145.672Z" fill="#D7504D"/>
<path d="M293.999 194.321C295.22 195.626 296.212 196.795 297.256 198.046C298.3 199.296 299.288 200.533 300.241 201.812C302.181 204.339 304.016 206.949 305.803 209.591C307.591 212.233 309.285 214.937 310.872 217.748L312.222 219.972C312.726 220.81 313.129 221.665 313.554 222.51C314.346 224.186 315.021 225.915 315.572 227.684C316.635 231.018 317.359 234.45 317.735 237.928C318.115 241.266 318.248 244.627 318.131 247.984C318.049 251.259 317.769 254.527 317.293 257.769C316.841 261.019 316.181 264.236 315.316 267.4L307.08 266.03C307.09 263.23 307.047 260.168 306.883 257.256C306.719 254.345 306.455 251.405 306.086 248.55C305.472 243.084 304.101 237.73 302.012 232.642C301.51 231.514 300.944 230.416 300.317 229.353C299.996 228.852 299.699 228.329 299.365 227.871C299.176 227.624 299.063 227.438 298.832 227.144L298.151 226.251C296.302 223.898 294.476 221.547 292.594 219.192C290.712 216.837 288.852 214.484 286.975 212.231L281.447 205.455L293.999 194.321Z" fill="#FFBBB5"/>
<path d="M271.41 200.205C269.613 206.618 288.881 219.548 288.881 219.548L305.398 206.97C301.717 201.016 297.512 195.403 292.834 190.195C285.113 181.598 274.328 189.816 271.41 200.205Z" fill="#263238"/>
<path opacity="0.2" d="M271.41 200.205C269.613 206.618 288.881 219.548 288.881 219.548L305.398 206.97C301.717 201.016 297.512 195.403 292.834 190.195C285.113 181.598 274.328 189.816 271.41 200.205Z" fill="white"/>
<path opacity="0.2" d="M284.88 207.784C282.119 206.067 281.483 209.597 281.669 214.141C285.477 217.267 288.871 219.548 288.871 219.548L290.974 217.944C289.622 213.717 287.652 209.502 284.88 207.784Z" fill="black"/>
<path d="M309.405 263.836C309.405 263.836 306.056 264.375 304.439 266.668C302.822 268.96 300.921 270.361 299.837 272.148C298.753 273.936 301.437 273.066 302.772 272.315C304.106 271.564 305.627 270.726 306.029 271.819C306.431 272.913 304.754 282.793 305.484 284.246C306.214 285.699 306.985 284.185 306.985 284.185C306.985 284.185 306.642 286.596 307.56 286.992C307.798 287.095 308.52 286.947 308.848 285.873C309.587 283.457 310.876 278.306 310.876 278.306C310.796 278.6 309.659 285.072 309.614 286.063C309.557 287.359 310.191 287.999 310.943 288.008C312.014 288.021 313.697 280.044 314.004 279.758C314.004 279.758 312.881 284.317 313.899 285.251C314.917 286.185 315.781 283.353 316.068 280.712C316.331 278.291 317.481 273.609 317.51 271.122C317.546 268.057 316.881 265.991 314.278 264.772C311.675 263.553 309.405 263.836 309.405 263.836Z" fill="#FFBBB5"/>
<path d="M228.874 292.245C228.874 292.245 249.752 294.079 273.048 291.129C296.345 288.179 296.584 284.511 296.584 284.511L289.622 276.474C289.622 276.474 273.783 272.596 272.528 272.372C271.274 272.147 228.874 292.245 228.874 292.245Z" fill="#263238"/>
<path d="M320.226 448.282L310.663 450.395L301.255 430.447L313.679 425.608L320.226 448.282Z" fill="#FFBBB5"/>
<path d="M309.37 448.823L312.368 447.751C313.046 447.508 313.797 447.627 314.393 448.031C316.966 449.774 317.946 448.417 319.033 445.524C320.179 444.957 320.991 446.214 321.221 446.548L326.378 453.899C326.816 454.51 326.676 455.361 326.065 455.799C325.956 455.877 325.837 455.938 325.71 455.981C322.069 457.283 320.347 457.899 315.816 459.52L301.958 464.477C298.18 465.828 296.036 462.301 297.466 461.392C303.91 457.343 308.129 453.511 309.564 450.702C309.836 450.202 309.329 450.083 309.37 448.823Z" fill="#263238"/>
<path d="M305.893 453.199C306.831 452.838 307.729 452.38 308.572 451.832C308.648 451.77 308.658 451.659 308.596 451.583C308.563 451.542 308.512 451.519 308.46 451.518C307.966 451.463 303.591 451.052 302.889 452.054C302.754 452.231 302.732 452.471 302.833 452.67C302.977 453.057 303.295 453.353 303.692 453.467C304.436 453.615 305.207 453.521 305.893 453.199ZM307.905 451.818C306.873 452.419 304.915 453.428 303.836 453.097C303.553 453.002 303.325 452.79 303.208 452.516C303.159 452.434 303.166 452.331 303.225 452.256C303.615 451.707 306.104 451.689 307.905 451.818Z" fill="#407BFF"/>
<path d="M308.537 451.857C308.579 451.855 308.62 451.84 308.654 451.815C308.689 451.753 308.683 451.677 308.64 451.621C308.584 451.464 306.383 448.09 304.412 449.06C303.928 449.311 303.868 449.608 303.922 449.82C304.145 450.844 307.165 451.85 308.458 451.918L308.537 451.857ZM304.723 449.28C306.025 448.814 307.548 450.698 308.111 451.468C306.657 451.26 304.394 450.336 304.288 449.7C304.271 449.651 304.222 449.514 304.589 449.338L304.723 449.28Z" fill="#407BFF"/>
<path d="M308.116 451.881C309.199 451.653 310.377 451.927 311.249 452.61" stroke="#407BFF" stroke-width="0.5" stroke-miterlimit="10" stroke-linecap="round" stroke-linejoin="round"/>
<path d="M306.754 453.949C307.837 453.721 309.016 453.995 309.887 454.678" stroke="#407BFF" stroke-width="0.5" stroke-miterlimit="10" stroke-linecap="round" stroke-linejoin="round"/>
<path d="M304.858 455.958C305.941 455.73 307.12 456.004 307.99 456.687" stroke="#407BFF" stroke-width="0.5" stroke-miterlimit="10" stroke-linecap="round" stroke-linejoin="round"/>
<path d="M262.323 462.045L252.53 462.163L247.389 440.715L260.539 438.513L262.323 462.045Z" fill="#FFBBB5"/>
<path d="M251.584 460.36L254.738 459.922C255.452 459.823 256.162 460.092 256.664 460.609C258.828 462.84 260.064 461.711 261.718 459.102C262.955 458.781 263.494 460.177 263.651 460.551L267.2 468.799C267.504 469.487 267.193 470.291 266.506 470.595C266.384 470.649 266.254 470.685 266.121 470.701C262.291 471.233 260.479 471.485 255.713 472.147L241.135 474.172C237.161 474.724 235.781 470.834 237.367 470.236C244.502 467.587 249.413 464.697 251.391 462.239C251.759 461.805 251.287 461.585 251.584 460.36Z" fill="#263238"/>
<path d="M247.288 463.936C248.28 463.774 249.253 463.509 250.19 463.145C250.277 463.1 250.31 462.993 250.265 462.906C250.241 462.859 250.196 462.826 250.145 462.815C249.672 462.66 245.473 461.365 244.582 462.203C244.413 462.349 244.343 462.579 244.402 462.795C244.464 463.203 244.715 463.558 245.08 463.75C245.777 464.045 246.551 464.11 247.288 463.936ZM249.539 462.993C248.406 463.371 246.284 463.959 245.295 463.415C245.037 463.264 244.857 463.011 244.799 462.718C244.768 462.628 244.796 462.528 244.869 462.467C245.362 462.01 247.802 462.5 249.539 462.993Z" fill="#407BFF"/>
<path d="M250.15 463.16C250.192 463.166 250.235 463.16 250.273 463.143C250.319 463.09 250.329 463.014 250.299 462.951C250.276 462.786 248.81 459.034 246.683 459.581C246.158 459.727 246.039 460.006 246.048 460.225C246.057 461.273 248.809 462.874 250.061 463.204L250.15 463.16ZM246.942 459.86C248.311 459.67 249.419 461.825 249.812 462.693C248.431 462.192 246.405 460.826 246.431 460.183C246.424 460.131 246.404 459.987 246.8 459.89L246.942 459.86Z" fill="#407BFF"/>
<path d="M249.733 463.098C250.84 463.095 251.938 463.604 252.651 464.451" stroke="#407BFF" stroke-width="0.5" stroke-miterlimit="10" stroke-linecap="round" stroke-linejoin="round"/>
<path d="M247.978 464.845C249.085 464.842 250.183 465.351 250.896 466.198" stroke="#407BFF" stroke-width="0.5" stroke-miterlimit="10" stroke-linecap="round" stroke-linejoin="round"/>
<path d="M245.712 466.425C246.819 466.422 247.917 466.932 248.63 467.778" stroke="#407BFF" stroke-width="0.5" stroke-miterlimit="10" stroke-linecap="round" stroke-linejoin="round"/>
<path d="M269.127 162.451C268.105 169.087 267.316 181.214 272.11 185.418C268.675 189.13 264.171 193.435 256.354 194.034C248.536 194.633 249.685 189.163 251.635 186.268C258.915 184.21 258.498 178.776 257.004 173.699L269.127 162.451Z" fill="#FFBBB5"/>
<path d="M249.146 154.835C249.027 155.559 248.559 156.085 248.09 156.014C247.621 155.943 247.331 155.297 247.439 154.572C247.547 153.847 248.026 153.334 248.494 153.405C248.963 153.475 249.253 154.121 249.146 154.835Z" fill="#263238"/>
<path d="M248.849 155.527C247.654 157.593 246.178 159.483 244.464 161.143C245.34 162.003 246.551 162.433 247.773 162.317L248.849 155.527Z" fill="#E97A75"/>
<path d="M251.225 152.24C251.096 152.182 251.005 152.063 250.984 151.923C250.831 150.845 250.167 149.907 249.201 149.405C248.983 149.312 248.881 149.06 248.974 148.841C249.067 148.623 249.319 148.521 249.538 148.614C250.765 149.239 251.616 150.417 251.825 151.779C251.861 152.011 251.703 152.228 251.472 152.266C251.389 152.285 251.302 152.276 251.225 152.24Z" fill="#263238"/>
<path d="M273.784 156.793C271.557 165.465 270.695 170.648 265.405 174.324C257.438 179.819 247.384 173.725 246.972 164.568C246.599 156.324 250.293 143.538 259.554 141.647C266.16 140.297 272.609 144.559 273.959 151.165C274.341 153.029 274.281 154.956 273.784 156.793Z" fill="#FFBBB5"/>
<path d="M255.851 158.246C253.49 155.201 254.781 148.996 256.529 146.09C254.601 147.175 248.289 146.396 248.532 141.426C248.882 134.145 261.21 133.134 267.845 134.786C275.487 136.742 282.013 144.372 284.821 142.02C287.298 147.018 282.393 148.443 282.393 148.443C282.393 148.443 286.498 160.764 268.358 171.598C265.978 171.127 263.533 171.094 261.142 171.499C260.601 171.467 260.094 171.225 259.729 170.824C258.056 168.954 253.516 163.212 255.851 158.246Z" fill="#263238"/>
<path d="M281.747 148.137C281.747 148.137 285.005 149.016 286.245 146.959C285.751 149.969 283.899 149.888 281.747 148.137Z" fill="#263238"/>
<path d="M261.494 161.35C260.277 163.244 258.358 164.578 256.158 165.057C253.245 165.66 251.976 163.002 252.954 160.379C253.83 157.987 256.414 154.801 259.262 155.376C262.11 155.951 262.94 159.024 261.494 161.35Z" fill="#FFBBB5"/>
<path d="M255.703 266.552C255.703 266.552 266.191 340.749 272.082 366.454C278.528 394.699 301.734 443.147 301.734 443.147L319.018 437.586C319.018 437.586 304.31 398.746 299.106 371.009C295.589 352.115 292.717 313.163 292.55 292.451C292.418 276.092 286.774 265.708 286.774 265.708L255.703 266.552Z" fill="#407BFF"/>
<path opacity="0.2" d="M265.479 300.24C266.215 320.743 266.627 323.169 266.521 339.001C263.62 322.034 260.609 302.383 258.438 287.841L265.479 300.24Z" fill="black"/>
<path d="M246.411 453.732L262.47 452.853C262.47 452.853 259.653 395.221 259.238 367.132C259.107 358.587 260.058 346.57 261.497 333.658C263.304 317.381 264.263 310.876 266.646 290.311C268.341 275.647 269.937 266.175 269.937 266.175L232.045 265.987C232.045 265.987 233.032 338.383 235.091 365.821C237.262 394.311 246.411 453.732 246.411 453.732Z" fill="#407BFF"/>
<path d="M245.502 454.754L263.679 454.185L263.506 448.313L245.197 448.716L245.502 454.754Z" fill="#407BFF"/>
<path opacity="0.3" d="M245.502 454.754L263.679 454.185L263.506 448.313L245.197 448.716L245.502 454.754Z" fill="black"/>
<path d="M301.421 444.232L319.689 437.578L317.698 432.113L298.829 437.574L301.421 444.232Z" fill="#407BFF"/>
<path opacity="0.3" d="M301.421 444.232L319.689 437.578L317.698 432.113L298.829 437.574L301.421 444.232Z" fill="black"/>
<path opacity="0.2" d="M274.168 288.718L265.479 300.24C265.479 300.24 272.417 298.388 274.168 288.718Z" fill="black"/>
<path d="M289.402 191.432C283.399 225.676 296.711 277.409 296.585 284.511C284.803 267.536 243.395 291.873 228.875 292.245C235.762 231.888 239.691 187.244 239.691 187.244C239.691 187.244 242.739 186.446 246.906 185.745C248.212 185.525 249.629 185.323 251.101 185.146C251.905 185.045 252.742 184.968 253.579 184.89C260.409 184.576 267.252 184.649 274.073 185.11C275.363 185.182 276.686 185.256 277.959 185.428C279.232 185.6 280.295 185.693 281.39 185.833C283.076 186.062 284.637 186.306 285.963 186.527C288.256 186.916 289.799 189.091 289.41 191.384C289.407 191.401 289.405 191.417 289.402 191.432Z" fill="#263238"/>
<path opacity="0.2" d="M289.402 191.432C283.399 225.676 296.711 277.409 296.585 284.511C284.803 267.536 243.395 291.873 228.875 292.245C235.762 231.888 239.691 187.244 239.691 187.244C239.691 187.244 242.739 186.446 246.906 185.745C248.212 185.525 249.629 185.323 251.101 185.146C251.905 185.045 252.742 184.968 253.579 184.89C260.409 184.576 267.252 184.649 274.073 185.11C275.363 185.182 276.686 185.256 277.959 185.428C279.232 185.6 280.295 185.693 281.39 185.833C283.076 186.062 284.637 186.306 285.963 186.527C288.256 186.916 289.799 189.091 289.41 191.384C289.407 191.401 289.405 191.417 289.402 191.432Z" fill="white"/>
<path opacity="0.2" d="M238.479 202.59C238.213 204.341 237.971 206.251 237.744 208.308C240.946 208.171 244.86 207.58 246.6 205.832C248.726 203.611 242.648 202.857 238.479 202.59Z" fill="black"/>
<path d="M235.853 130.755C235.853 130.755 239.083 131.793 241.563 130.482C244.043 129.171 246.372 128.784 248.149 127.682C249.925 126.58 247.139 126.138 245.608 126.203C244.078 126.268 242.343 126.326 242.48 125.169C242.617 124.012 248.59 115.964 248.597 114.338C248.605 112.712 247.231 113.712 247.231 113.712C247.231 113.712 248.629 111.718 247.99 110.949C247.824 110.749 247.114 110.554 246.335 111.363C244.581 113.182 241.098 117.19 241.098 117.19C241.303 116.964 245.249 111.711 245.738 110.847C246.376 109.718 246.101 108.86 245.435 108.511C244.486 108.014 239.371 114.362 238.968 114.478C238.968 114.478 242.035 110.922 241.551 109.628C241.067 108.334 239.014 110.467 237.561 112.691C236.229 114.73 233.082 118.382 231.93 120.586C230.509 123.302 230.166 125.445 231.934 127.711C233.701 129.978 235.853 130.755 235.853 130.755Z" fill="#FFBBB5"/>
<path d="M230.572 125.175C230.572 125.175 213.267 149.771 211.922 159.227C210.577 168.683 231.923 196.173 231.923 196.173L246.814 188.982C246.814 188.982 226.159 164.927 226.314 158.907C226.469 152.887 239.16 128.607 239.16 128.607L230.572 125.175Z" fill="#FFBBB5"/>
<path d="M237.818 202.532C234.929 200.212 221.701 186.846 221.701 186.846L232.427 168.8C232.427 168.8 247.738 177.499 256.691 184.188C265.867 191.047 247.09 204.322 237.818 202.532Z" fill="#263238"/>
<path opacity="0.2" d="M237.818 202.532C234.929 200.212 221.701 186.846 221.701 186.846L232.427 168.8C232.427 168.8 247.738 177.499 256.691 184.188C265.867 191.047 247.09 204.322 237.818 202.532Z" fill="white"/>
</svg>
