<svg width="591" height="591" viewBox="0 0 591 591" fill="none" xmlns="http://www.w3.org/2000/svg">
<path d="M591 451.995H0V452.29H591V451.995Z" fill="#EBEBEB"/>
<path d="M531.783 471.02H492.633V471.316H531.783V471.02Z" fill="#EBEBEB"/>
<path d="M391.502 474.228H381.227V474.524H391.502V474.228Z" fill="#EBEBEB"/>
<path d="M491.45 460.044H468.765V460.339H491.45V460.044Z" fill="#EBEBEB"/>
<path d="M113.061 462.03H62.0065V462.325H113.061V462.03Z" fill="#EBEBEB"/>
<path d="M131.071 462.03H123.585V462.325H131.071V462.03Z" fill="#EBEBEB"/>
<path d="M266.124 467.021H155.399V467.317H266.124V467.021Z" fill="#EBEBEB"/>
<path d="M280.151 399.28H51.9075C48.1878 399.28 45.1607 396.253 45.1607 392.533V71.7002C45.1607 67.9805 48.1878 64.9534 51.9075 64.9534H280.151C283.869 64.9534 286.896 67.9805 286.896 71.7002V392.533C286.896 396.253 283.869 399.28 280.151 399.28ZM51.9075 65.2501C48.3497 65.2501 45.4562 68.1436 45.4562 71.7014V392.534C45.4562 396.092 48.3497 398.985 51.9075 398.985H280.151C283.707 398.985 286.601 396.092 286.601 392.534V71.7002C286.601 68.1436 283.707 65.2489 280.151 65.2489L51.9075 65.2501Z" fill="#EBEBEB"/>
<path d="M535.812 399.28H307.571C303.851 399.28 300.825 396.253 300.825 392.533V71.7002C300.825 67.9805 303.852 64.9534 307.571 64.9534H535.812C539.533 64.9534 542.559 67.9805 542.559 71.7002V392.533C542.56 396.253 539.533 399.28 535.812 399.28ZM307.571 65.2501C304.014 65.2501 301.12 68.1436 301.12 71.7014V392.534C301.12 396.092 304.014 398.985 307.571 398.985H535.812C539.37 398.985 542.264 396.092 542.264 392.534V71.7002C542.264 68.1436 539.37 65.2489 535.812 65.2489L307.571 65.2501Z" fill="#EBEBEB"/>
<path d="M243.998 355.184H163.922V441.374H243.998V355.184Z" fill="#E6E6E6"/>
<path d="M256.224 348.772H246.159V452.557H256.224V348.772Z" fill="#E6E6E6"/>
<path d="M183.23 361.969H176.669V394.178H183.23V361.969Z" fill="#FAFAFA"/>
<path d="M210.434 361.969H203.873V394.178H210.434V361.969Z" fill="#F5F5F5"/>
<path d="M189.791 364.232H183.23V394.178H189.791V364.232Z" fill="#F5F5F5"/>
<path d="M203.873 364.232H197.311V394.178H203.873V364.232Z" fill="#FAFAFA"/>
<path d="M197.311 361.969H193.071V394.178H197.311V361.969Z" fill="#EBEBEB"/>
<path d="M193.071 364.232H189.791V394.178H193.071V364.232Z" fill="#FAFAFA"/>
<path d="M216.995 361.969H210.434V394.178H216.995V361.969Z" fill="#EBEBEB"/>
<path d="M223.556 364.232H216.995V394.178H223.556V364.232Z" fill="#E6E6E6"/>
<path d="M237.639 364.232H231.077V394.178H237.639V364.232Z" fill="#E6E6E6"/>
<path d="M231.077 361.969H226.838V394.178H231.077V361.969Z" fill="#FAFAFA"/>
<path d="M226.836 364.232H223.556V394.178H226.836V364.232Z" fill="#EBEBEB"/>
<path d="M240.919 362.732H237.639V394.178H240.919V362.732Z" fill="#FAFAFA"/>
<path d="M234.357 437.348H240.919V405.138H234.357V437.348Z" fill="#FAFAFA"/>
<path d="M207.153 437.348H213.714V405.138H207.153V437.348Z" fill="#FAFAFA"/>
<path d="M227.796 437.348H234.358V407.402H227.796V437.348Z" fill="#F0F0F0"/>
<path d="M213.714 437.348H220.276V407.402H213.714V437.348Z" fill="#EBEBEB"/>
<path d="M220.276 437.348H224.515V405.138H220.276V437.348Z" fill="#FAFAFA"/>
<path d="M224.515 437.348H227.796V407.402H224.515V437.348Z" fill="#F5F5F5"/>
<path d="M200.592 437.348H207.153V405.138H200.592V437.348Z" fill="#EBEBEB"/>
<path d="M194.031 437.348H200.592V407.402H194.031V437.348Z" fill="#F5F5F5"/>
<path d="M179.949 437.348H186.51V407.402H179.949V437.348Z" fill="#E6E6E6"/>
<path d="M186.511 437.348H190.751V405.138H186.511V437.348Z" fill="#FAFAFA"/>
<path d="M172.429 437.348H176.669V405.138H172.429V437.348Z" fill="#FAFAFA"/>
<path d="M190.749 437.348H194.031V407.402H190.749V437.348Z" fill="#EBEBEB"/>
<path d="M176.668 437.348H179.95V405.902H176.668V437.348Z" fill="#F0F0F0"/>
<path d="M243.595 348.772H240.91H161.387V446.742H240.91V452.557H246.279V348.772H243.595ZM240.91 437.348H166.449V399.582H240.91V437.348ZM240.91 394.214H166.449V358.166H240.91V394.214Z" fill="#F0F0F0"/>
<path d="M83.7157 441.374H163.792V355.184H83.7157L83.7157 441.374Z" fill="#E6E6E6"/>
<path d="M86.7943 452.558H96.8602V445.688H86.7943V452.558Z" fill="#E6E6E6"/>
<path d="M154.532 394.179H161.094V361.969H154.532V394.179Z" fill="#FAFAFA"/>
<path d="M127.328 394.179H133.889V361.969H127.328V394.179Z" fill="#F5F5F5"/>
<path d="M147.971 394.179H154.533V364.233H147.971V394.179Z" fill="#F5F5F5"/>
<path d="M133.889 394.179H140.45V364.233H133.889V394.179Z" fill="#FAFAFA"/>
<path d="M140.45 394.179H144.69V361.969H140.45V394.179Z" fill="#EBEBEB"/>
<path d="M144.689 394.179H147.971V364.233H144.689V394.179Z" fill="#FAFAFA"/>
<path d="M125.093 394.179H131.654V361.969H125.093V394.179Z" fill="#EBEBEB"/>
<path d="M118.532 394.179H125.093V364.233H118.532V394.179Z" fill="#E6E6E6"/>
<path d="M104.45 394.179H111.011V364.233H104.45V394.179Z" fill="#E6E6E6"/>
<path d="M111.011 394.179H115.251V361.969H111.011V394.179Z" fill="#FAFAFA"/>
<path d="M115.251 394.179H118.531V364.233H115.251V394.179Z" fill="#EBEBEB"/>
<path d="M101.169 394.178H104.45V362.732H101.169V394.178Z" fill="#F5F5F5"/>
<path d="M104.648 405.139H98.0871V437.348H104.648V405.139Z" fill="#FAFAFA"/>
<path d="M131.852 405.139H125.291V437.348H131.852V405.139Z" fill="#FAFAFA"/>
<path d="M111.21 407.403H104.648V437.349H111.21V407.403Z" fill="#F5F5F5"/>
<path d="M125.292 407.403H118.731V437.349H125.292V407.403Z" fill="#EBEBEB"/>
<path d="M118.731 405.139H114.491V437.348H118.731V405.139Z" fill="#FAFAFA"/>
<path d="M114.491 407.403H111.21V437.349H114.491V407.403Z" fill="#F5F5F5"/>
<path d="M134.088 405.139H127.527V437.348H134.088V405.139Z" fill="#EBEBEB"/>
<path d="M140.65 407.403H134.088V437.349H140.65V407.403Z" fill="#F5F5F5"/>
<path d="M154.731 407.403H148.17V437.349H154.731V407.403Z" fill="#E6E6E6"/>
<path d="M148.17 405.139H143.93V437.348H148.17V405.139Z" fill="#FAFAFA"/>
<path d="M161.387 405.139H157.147V437.348H161.387V405.139Z" fill="#FAFAFA"/>
<path d="M143.931 407.403H140.65V437.349H143.931V407.403Z" fill="#EBEBEB"/>
<path d="M158.012 405.901H154.731V437.347H158.012V405.901Z" fill="#EBEBEB"/>
<path d="M81.4351 348.772V452.557H86.8037V446.742H166.327V348.772H86.8025H84.1182H81.4351ZM86.8025 399.582H161.264V437.348H86.8025V399.582ZM86.8025 358.166H161.264V394.214H86.8025V358.166Z" fill="#F0F0F0"/>
<path d="M87.1926 277.204H256.375V102.392L87.1926 102.392L87.1926 277.204Z" fill="#EBEBEB"/>
<path d="M81.2826 277.204H250.465L250.465 102.392L81.2826 102.392L81.2826 277.204Z" fill="#F0F0F0"/>
<path d="M246.199 106.535H85.7671V273.142H246.199V106.535Z" fill="#E0E0E0"/>
<path d="M246.201 106.534H89.7753V273.137H246.201V106.534Z" fill="#F5F5F5"/>
<path d="M166.37 273.141H169.546L169.546 106.535H166.37L166.37 273.141Z" fill="#EBEBEB"/>
<path d="M148.142 106.534L103.557 273.136H99.2785L143.864 106.534H148.142Z" fill="white"/>
<path d="M165.008 276.334H167.731L167.731 103.965H165.008L165.008 276.334Z" fill="#F0F0F0"/>
<path d="M131.961 106.534L89.7753 264.201V177.535L108.77 106.534H131.961Z" fill="white"/>
<path d="M246.201 121.652V137.644L209.937 273.136H205.659L246.201 121.652Z" fill="white"/>
<path d="M246.201 153.944V240.607L237.502 273.136H214.311L246.201 153.944Z" fill="white"/>
<path d="M441.604 147.267C454.598 144.199 462.645 131.177 459.577 118.183C456.508 105.188 443.487 97.1415 430.492 100.21C417.498 103.278 409.451 116.3 412.519 129.294C415.588 142.289 428.609 150.336 441.604 147.267Z" fill="#E0E0E0"/>
<path d="M450.595 138.302C458.623 130.275 458.623 117.259 450.595 109.232C442.567 101.204 429.552 101.204 421.525 109.232C413.497 117.259 413.497 130.275 421.524 138.302C429.552 146.33 442.567 146.33 450.595 138.302Z" fill="#F0F0F0"/>
<path d="M435.093 137.866V123.497L425.571 128.885" fill="#F0F0F0"/>
<path d="M435.093 137.866V123.497L425.571 128.885" stroke="#E0E0E0" stroke-width="2" stroke-miterlimit="10" stroke-linecap="round" stroke-linejoin="round"/>
<path d="M512.204 192.422H359.921V198.639H512.204V192.422Z" fill="#E0E0E0"/>
<path d="M373.64 169.504H366.931V192.421H373.64V169.504Z" fill="#EBEBEB"/>
<path d="M406.08 169.504H399.371V192.421H406.08V169.504Z" fill="#EBEBEB"/>
<path d="M447.805 191.516L441.195 192.421L436.296 169.836L442.907 168.93L447.805 191.516Z" fill="#EBEBEB"/>
<path d="M381.953 172.524H375.244V192.421H381.953V172.524Z" fill="#EBEBEB"/>
<path d="M397.373 172.524H390.664V192.421H397.373V172.524Z" fill="#EBEBEB"/>
<path d="M436.296 172.524H429.587V192.421H436.296V172.524Z" fill="#EBEBEB"/>
<path d="M420.324 191.264L413.774 192.422L408.343 172.997L414.893 171.841L420.324 191.264Z" fill="#EBEBEB"/>
<path d="M387.754 168.365H384.399V192.422H387.754V168.365Z" fill="#EBEBEB"/>
<path d="M427.658 168.365H424.304V192.422H427.658V168.365Z" fill="#EBEBEB"/>
<path d="M497.592 174.282H464.903V192.216H497.592V174.282Z" fill="#EBEBEB"/>
<path d="M295.5 505.377C422.071 505.377 524.677 499.385 524.677 491.993C524.677 484.602 422.071 478.61 295.5 478.61C168.929 478.61 66.3232 484.602 66.3232 491.993C66.3232 499.385 168.929 505.377 295.5 505.377Z" fill="#F5F5F5"/>
<path d="M96.0446 432.413C96.0446 432.413 88.7446 434.006 85.6264 432.413C82.5095 430.821 83.6714 407.619 80.4871 407.139C73.1575 406.035 74.4045 436.85 77.5215 443.343C80.6384 449.836 96.7053 447.075 96.7053 447.075L96.0446 432.413Z" fill="#407BFF"/>
<path opacity="0.2" d="M96.0446 432.413C96.0446 432.413 88.7446 434.006 85.6264 432.413C82.5095 430.821 83.6714 407.619 80.4871 407.139C73.1575 406.035 74.4045 436.85 77.5215 443.343C80.6384 449.836 96.7053 447.075 96.7053 447.075L96.0446 432.413Z" fill="white"/>
<path d="M96.651 475.246C96.651 475.246 85.8368 372.252 98.7466 370.441C111.656 368.63 114.772 369.751 109.785 473.246L96.651 475.246Z" fill="#407BFF"/>
<path opacity="0.3" d="M96.651 475.246C96.651 475.246 85.8368 372.252 98.7466 370.441C111.656 368.63 114.772 369.751 109.785 473.246L96.651 475.246Z" fill="white"/>
<path d="M81.4894 463.617H123.955L120.409 490.786H85.0354L81.4894 463.617Z" fill="#263238"/>
<path d="M109.474 411.392C109.474 411.392 121.241 412.42 121.592 411.392C121.943 410.363 121.943 388.092 126.931 389.408C131.919 390.723 129.738 417.533 126.931 420.65C124.125 423.767 109.474 425.455 109.474 425.455C109.474 425.455 107.511 415.569 109.474 411.392Z" fill="#407BFF"/>
<path opacity="0.4" d="M109.474 411.392C109.474 411.392 121.241 412.42 121.592 411.392C121.943 410.363 121.943 388.092 126.931 389.408C131.919 390.723 129.738 417.533 126.931 420.65C124.125 423.767 109.474 425.455 109.474 425.455C109.474 425.455 107.511 415.569 109.474 411.392Z" fill="white"/>
<path d="M102.017 460.875C101.16 453.429 100.387 445.973 99.6721 438.511C98.9949 431.046 98.3956 423.573 97.8991 416.09C97.3921 408.608 97.0576 401.113 96.9595 393.605C96.9205 389.851 96.9441 386.092 97.1734 382.327C97.2916 380.446 97.4642 378.562 97.794 376.677C97.9713 375.735 98.1734 374.793 98.5386 373.852C98.7206 373.384 98.9547 372.91 99.3306 372.46C99.4346 372.347 99.5764 372.234 99.7052 372.13C99.8329 372.024 100.093 371.949 100.29 371.899C100.807 371.877 101.192 372.156 101.388 372.391C102.147 373.362 102.317 374.284 102.588 375.22C102.819 376.153 103.011 377.085 103.163 378.019C103.477 379.885 103.706 381.755 103.904 383.625C104.294 387.366 104.564 391.111 104.79 394.855C105.225 402.347 105.523 409.84 105.672 417.336C105.832 424.831 105.925 432.327 105.96 439.822C105.958 447.318 105.914 454.814 105.813 462.307C105.722 454.814 105.573 447.321 105.382 439.83C105.228 432.339 105.034 424.85 104.763 417.363C104.47 409.879 104.206 402.392 103.716 394.923C103.473 391.189 103.185 387.458 102.781 383.747C102.575 381.892 102.34 380.041 102.022 378.215C101.869 377.3 101.678 376.397 101.456 375.513C101.236 374.66 100.936 373.699 100.52 373.191C100.418 373.059 100.371 373.101 100.413 373.07C100.399 373.114 100.409 373.064 100.358 373.11L100.206 373.244C99.9818 373.516 99.7785 373.883 99.6237 374.287C99.3045 375.092 99.1024 375.99 98.9299 376.885C98.6036 378.692 98.424 380.545 98.2987 382.401C98.054 386.117 98.0126 389.857 98.0327 393.595C98.0788 401.075 98.4381 408.557 98.8022 416.037C99.1875 423.517 99.6899 430.991 100.244 438.464C100.769 445.939 101.352 453.411 102.017 460.875Z" fill="#407BFF"/>
<path d="M110.956 416.676C112.476 416.536 113.993 416.434 115.504 416.26C117.014 416.121 118.524 415.96 120.004 415.706C120.741 415.575 121.477 415.426 122.17 415.231C122.836 415.081 123.629 414.616 123.396 414.539C123.3 413.642 123.378 412.933 123.403 412.145C123.447 411.377 123.497 410.613 123.562 409.851C123.841 406.809 124.194 403.782 124.664 400.769C125.14 397.76 125.599 394.74 126.387 391.783C126.227 393.3 126.092 394.814 125.979 396.333L125.567 400.878L124.739 409.952C124.615 411.432 124.448 413.035 124.501 414.377L124.508 414.536C124.513 414.639 124.508 414.745 124.497 414.845C124.452 415.02 124.358 415.238 124.257 415.334C124.047 415.585 123.831 415.705 123.63 415.809C123.222 416.014 122.832 416.129 122.443 416.227C121.667 416.426 120.897 416.526 120.129 416.603C117.057 416.9 114.003 416.889 110.956 416.676Z" fill="#407BFF"/>
<path d="M110.956 421.819L115.973 420.707C117.647 420.355 119.318 419.998 120.977 419.598C122.605 419.177 124.346 418.826 125.788 418.22C125.943 418.149 126.126 418.034 126.087 418.046C126.147 417.935 126.222 417.792 126.279 417.603C126.402 417.248 126.489 416.84 126.571 416.439C126.726 415.624 126.832 414.784 126.929 413.945C127.32 410.576 127.512 407.16 127.765 403.752L128.1 398.632L128.49 393.507C128.693 396.933 128.717 400.361 128.674 403.79C128.632 407.22 128.474 410.647 128.103 414.082C127.994 414.941 127.876 415.799 127.702 416.664C127.609 417.099 127.514 417.53 127.353 417.983C127.282 418.203 127.173 418.447 127.012 418.702C126.716 419.076 126.486 419.11 126.259 419.233C124.514 419.884 122.868 420.175 121.161 420.486C117.773 421.081 114.376 421.535 110.956 421.819Z" fill="#407BFF"/>
<path d="M92.4099 436.718C89.41 436.746 86.3947 436.629 83.422 435.673C83.0521 435.528 82.6797 435.387 82.3168 435.157C82.1561 435.093 81.8984 434.845 81.7672 434.649C81.6443 434.452 81.5284 434.252 81.4599 434.064C81.1443 433.296 80.9824 432.549 80.8263 431.797C80.5474 430.294 80.3925 428.793 80.2554 427.294C80.0249 424.293 79.9245 421.294 79.9552 418.296C79.9777 415.298 80.0628 412.302 80.3287 409.312L80.6242 413.796L80.8642 418.273C81.0474 421.254 81.1786 424.236 81.4327 427.197C81.545 428.677 81.6951 430.156 81.9256 431.601C82.045 432.317 82.1833 433.044 82.4149 433.67C82.4681 433.838 82.5402 433.96 82.6076 434.085C82.6892 434.19 82.6903 434.229 82.8629 434.337C83.1194 434.53 83.4397 434.681 83.7553 434.832C85.0709 435.389 86.5342 435.718 87.9893 435.993C89.4443 436.303 90.9253 436.502 92.4099 436.718Z" fill="#407BFF"/>
<path d="M78.1491 412.116C78.3205 413.863 78.4257 415.611 78.5782 417.357L78.9328 422.596C79.1869 426.085 79.3772 429.577 79.6585 433.054C79.7909 434.792 79.9339 436.533 80.1668 438.241C80.2743 439.078 80.4008 439.988 80.6384 440.678C80.824 441.359 81.5166 441.744 82.2577 442.125C83.7932 442.79 85.5094 443.17 87.2174 443.464C88.929 443.793 90.6653 443.996 92.4088 444.193C88.9029 444.247 85.3629 444.141 81.9043 442.963C81.4788 442.771 81.045 442.604 80.6396 442.297C80.2377 442.036 79.8276 441.563 79.6869 441.087C79.3264 440.136 79.2117 439.292 79.0593 438.404C78.785 436.647 78.6337 434.898 78.4801 433.146C78.2259 429.642 78.0652 426.139 78.0274 422.634C77.9801 419.128 77.9824 415.622 78.1491 412.116Z" fill="#407BFF"/>
<path d="M482.77 127.598V223.565C482.77 225.338 481.328 226.78 479.555 226.78H332.077C330.304 226.78 328.862 225.338 328.862 223.565V127.598C328.862 125.813 330.304 124.383 332.077 124.383H479.555C481.329 124.383 482.77 125.813 482.77 127.598Z" fill="#407BFF"/>
<path opacity="0.6" d="M482.77 135.246V223.565C482.77 225.338 481.328 226.78 479.555 226.78H332.077C330.304 226.78 328.862 225.338 328.862 223.565V135.246H482.77Z" fill="white"/>
<path opacity="0.4" d="M476.327 132.313C477.554 132.313 478.548 131.319 478.548 130.092C478.548 128.865 477.554 127.871 476.327 127.871C475.1 127.871 474.106 128.865 474.106 130.092C474.106 131.319 475.1 132.313 476.327 132.313Z" fill="white"/>
<path opacity="0.4" d="M467.91 132.313C469.137 132.313 470.131 131.319 470.131 130.092C470.131 128.865 469.137 127.871 467.91 127.871C466.683 127.871 465.689 128.865 465.689 130.092C465.689 131.319 466.683 132.313 467.91 132.313Z" fill="white"/>
<path opacity="0.4" d="M461.715 130.092C461.715 131.319 460.721 132.313 459.494 132.313C458.267 132.313 457.273 131.319 457.273 130.092C457.273 128.865 458.267 127.871 459.494 127.871C460.72 127.871 461.715 128.865 461.715 130.092Z" fill="white"/>
<path opacity="0.2" d="M477.553 141.126H334.079V221.872H477.553V141.126Z" fill="white"/>
<path d="M477.554 174.364V176.395L466.617 188.32L452.481 180.264L448.997 185.808L447.405 188.334L434.313 209.124L422.991 188.127L422.305 186.838L415.855 174.885L399.977 199.655L387.709 196.498L372.545 201.644L366.699 198.434L334.079 204.897V203.498L366.919 196.993L372.682 200.149L387.668 195.057L399.36 198.09L415.965 172.182L423.279 185.781L423.98 187.057L434.394 206.407L444.81 189.856L446.402 187.332L452.016 178.412L466.342 186.576L477.554 174.364Z" fill="white"/>
<path d="M477.554 191.558V192.972L469.129 194.851L452.263 185.478L447.405 188.333L444.811 189.856L441.203 191.983L430.169 180.346L423.98 187.056L422.992 188.127L398.84 214.311L388.575 200.066L369.899 205.844L360.251 202.688C351.756 205.665 340.256 209.741 334.082 211.979V210.51C338.363 208.933 346.075 206.215 360.018 201.316L360.238 201.247L369.913 204.403L389.125 198.461L398.965 212.143L422.307 186.837L423.281 185.781L430.157 178.329L441.451 190.255L446.405 187.331L448.998 185.808L452.25 183.887L469.334 193.397L477.554 191.558Z" fill="#407BFF"/>
<path d="M350.612 165.144V340.305C350.612 342.078 349.17 343.52 347.397 343.52H93.5388C91.7658 343.52 90.3237 342.078 90.3237 340.305V165.144C90.3237 163.359 91.7658 161.929 93.5388 161.929H347.397C349.17 161.929 350.612 163.359 350.612 165.144Z" fill="#407BFF"/>
<path opacity="0.4" d="M350.612 172.792V340.305C350.612 342.078 349.17 343.52 347.397 343.52H93.5388C91.7658 343.52 90.3237 342.078 90.3237 340.305V172.792H350.612Z" fill="white"/>
<path opacity="0.2" d="M350.612 333.177V340.305C350.612 342.078 349.17 343.52 347.397 343.52H93.5388C91.7658 343.52 90.3237 342.078 90.3237 340.305V333.177H350.612Z" fill="black"/>
<path opacity="0.4" d="M344.169 169.859C345.395 169.859 346.39 168.865 346.39 167.638C346.39 166.412 345.395 165.417 344.169 165.417C342.942 165.417 341.948 166.412 341.948 167.638C341.948 168.865 342.942 169.859 344.169 169.859Z" fill="white"/>
<path opacity="0.4" d="M335.752 169.859C336.978 169.859 337.973 168.865 337.973 167.638C337.973 166.412 336.978 165.417 335.752 165.417C334.525 165.417 333.531 166.412 333.531 167.638C333.531 168.865 334.525 169.859 335.752 169.859Z" fill="white"/>
<path opacity="0.4" d="M329.556 167.638C329.556 168.865 328.562 169.859 327.335 169.859C326.108 169.859 325.114 168.865 325.114 167.638C325.114 166.411 326.108 165.417 327.335 165.417C328.562 165.417 329.556 166.411 329.556 167.638Z" fill="white"/>
<path opacity="0.2" d="M350.612 172.792H90.3237V183.319H350.612V172.792Z" fill="black"/>
<path d="M99.7289 177.945H95.0529" stroke="white" stroke-miterlimit="10" stroke-linecap="round" stroke-linejoin="round"/>
<path d="M96.3956 179.862L94.4796 177.945L96.3956 176.028" stroke="white" stroke-miterlimit="10" stroke-linecap="round" stroke-linejoin="round"/>
<path d="M345.806 175.581H340.779" stroke="white" stroke-miterlimit="10" stroke-linecap="round" stroke-linejoin="round"/>
<path d="M345.806 177.945H340.779" stroke="white" stroke-miterlimit="10" stroke-linecap="round" stroke-linejoin="round"/>
<path d="M345.806 180.309H340.779" stroke="white" stroke-miterlimit="10" stroke-linecap="round" stroke-linejoin="round"/>
<path d="M103.529 200.576H155.433" stroke="white" stroke-width="2" stroke-miterlimit="10" stroke-linecap="round" stroke-linejoin="round"/>
<path d="M103.529 212.891H197.05" stroke="white" stroke-width="2" stroke-miterlimit="10" stroke-linecap="round" stroke-linejoin="round"/>
<path d="M103.529 220.508H197.05" stroke="white" stroke-width="2" stroke-miterlimit="10" stroke-linecap="round" stroke-linejoin="round"/>
<path d="M103.529 228.124H197.05" stroke="white" stroke-width="2" stroke-miterlimit="10" stroke-linecap="round" stroke-linejoin="round"/>
<path d="M103.529 235.739H197.05" stroke="white" stroke-width="2" stroke-miterlimit="10" stroke-linecap="round" stroke-linejoin="round"/>
<path d="M103.529 243.355H197.05" stroke="white" stroke-width="2" stroke-miterlimit="10" stroke-linecap="round" stroke-linejoin="round"/>
<path d="M103.529 250.97H197.05" stroke="white" stroke-width="2" stroke-miterlimit="10" stroke-linecap="round" stroke-linejoin="round"/>
<path d="M103.529 258.586H197.05" stroke="white" stroke-width="2" stroke-miterlimit="10" stroke-linecap="round" stroke-linejoin="round"/>
<path d="M103.529 266.202H197.05" stroke="white" stroke-width="2" stroke-miterlimit="10" stroke-linecap="round" stroke-linejoin="round"/>
<path opacity="0.4" d="M337.407 196.655H213.825V266.202H337.407V196.655Z" fill="white"/>
<path d="M213.825 252.219L243.967 246.246L248.642 248.816L260.8 244.687L270.464 247.181L283.557 226.745L298.429 254.351L312.86 231.428L324.333 237.97L337.407 223.719V266.202H213.825V252.219Z" fill="white"/>
<path d="M213.825 258.586C213.825 258.403 238.667 249.675 238.667 249.675L246.46 252.22L261.735 247.493L269.84 258.759L295.051 231.43L304.049 240.929L312.86 235.739L326.554 243.355L337.407 240.929V266.203H213.825V258.586Z" fill="#407BFF"/>
<path opacity="0.3" d="M191.514 324.695C204.051 324.695 214.214 314.532 214.214 301.995C214.214 289.458 204.051 279.295 191.514 279.295C178.977 279.295 168.813 289.458 168.813 301.995C168.813 314.532 178.977 324.695 191.514 324.695Z" fill="white"/>
<path d="M191.514 301.995H214.214C214.214 314.449 203.966 324.695 191.514 324.695C179.06 324.695 168.813 314.447 168.813 301.995C168.813 289.541 179.061 279.295 191.514 279.295C191.525 279.295 191.538 279.295 191.55 279.295L191.514 301.995Z" fill="#407BFF"/>
<path d="M191.514 316.889C199.739 316.889 206.408 310.221 206.408 301.995C206.408 293.769 199.739 287.101 191.514 287.101C183.288 287.101 176.619 293.769 176.619 301.995C176.619 310.221 183.288 316.889 191.514 316.889Z" fill="white"/>
<path d="M186.294 301.995H196.733" stroke="#407BFF" stroke-width="2" stroke-miterlimit="10" stroke-linecap="round" stroke-linejoin="round"/>
<path opacity="0.3" d="M249.423 324.695C261.96 324.695 272.124 314.532 272.124 301.995C272.124 289.458 261.96 279.295 249.423 279.295C236.886 279.295 226.723 289.458 226.723 301.995C226.723 314.532 236.886 324.695 249.423 324.695Z" fill="white"/>
<path d="M249.423 301.995L264.97 318.536C260.762 322.491 255.199 324.695 249.423 324.695C236.97 324.695 226.723 314.447 226.723 301.995C226.723 289.541 236.971 279.295 249.423 279.295C249.435 279.295 249.448 279.295 249.46 279.295L249.423 301.995Z" fill="#407BFF"/>
<path d="M249.423 316.889C257.649 316.889 264.318 310.221 264.318 301.995C264.318 293.769 257.649 287.101 249.423 287.101C241.197 287.101 234.529 293.769 234.529 301.995C234.529 310.221 241.197 316.889 249.423 316.889Z" fill="white"/>
<path d="M244.204 301.995H254.642" stroke="#407BFF" stroke-width="2" stroke-miterlimit="10" stroke-linecap="round" stroke-linejoin="round"/>
<path opacity="0.3" d="M307.332 324.695C319.869 324.695 330.032 314.532 330.032 301.995C330.032 289.458 319.869 279.295 307.332 279.295C294.795 279.295 284.632 289.458 284.632 301.995C284.632 314.532 294.795 324.695 307.332 324.695Z" fill="white"/>
<path d="M307.332 301.995H330.032C330.032 314.449 319.784 324.695 307.332 324.695C294.878 324.695 284.632 314.447 284.632 301.995C284.632 296.831 286.394 291.817 289.625 287.789L307.332 301.995Z" fill="#407BFF"/>
<path d="M307.332 316.889C315.558 316.889 322.226 310.221 322.226 301.995C322.226 293.769 315.558 287.101 307.332 287.101C299.106 287.101 292.437 293.769 292.437 301.995C292.437 310.221 299.106 316.889 307.332 316.889Z" fill="white"/>
<path d="M302.112 301.995H312.552" stroke="#407BFF" stroke-width="2" stroke-miterlimit="10" stroke-linecap="round" stroke-linejoin="round"/>
<path opacity="0.3" d="M133.604 324.695C146.141 324.695 156.304 314.532 156.304 301.995C156.304 289.458 146.141 279.295 133.604 279.295C121.067 279.295 110.904 289.458 110.904 301.995C110.904 314.532 121.067 324.695 133.604 324.695Z" fill="white"/>
<path d="M133.604 301.995L153.273 290.663C149.226 283.639 141.711 279.295 133.604 279.295C133.591 279.295 133.579 279.295 133.567 279.295L133.604 301.995Z" fill="#407BFF"/>
<path d="M133.604 316.889C141.83 316.889 148.498 310.221 148.498 301.995C148.498 293.769 141.83 287.101 133.604 287.101C125.378 287.101 118.709 293.769 118.709 301.995C118.709 310.221 125.378 316.889 133.604 316.889Z" fill="white"/>
<path d="M138.824 301.995H128.385" stroke="#407BFF" stroke-width="2" stroke-miterlimit="10" stroke-linecap="round" stroke-linejoin="round"/>
<path d="M229.056 141.666C228.602 141.666 228.148 141.494 227.802 141.147C225.842 139.187 223.238 138.109 220.468 138.109C217.697 138.109 215.093 139.189 213.134 141.147C212.442 141.84 211.319 141.84 210.626 141.147C209.934 140.455 209.934 139.333 210.626 138.64C213.255 136.011 216.75 134.563 220.468 134.563C224.186 134.563 227.682 136.011 230.309 138.64C231.002 139.333 231.002 140.456 230.309 141.147C229.963 141.494 229.51 141.666 229.056 141.666Z" fill="#407BFF"/>
<path d="M235.366 135.356C234.912 135.356 234.458 135.183 234.112 134.837C226.588 127.312 214.346 127.313 206.823 134.837C206.13 135.529 205.008 135.529 204.316 134.837C203.623 134.144 203.623 133.021 204.316 132.33C213.222 123.423 227.713 123.423 236.62 132.33C237.313 133.022 237.313 134.145 236.62 134.837C236.274 135.183 235.82 135.356 235.366 135.356Z" fill="#407BFF"/>
<path d="M241.227 129.495C240.773 129.495 240.32 129.323 239.973 128.976C234.763 123.766 227.835 120.896 220.468 120.896C213.1 120.896 206.173 123.766 200.962 128.976C200.27 129.669 199.148 129.669 198.455 128.976C197.763 128.285 197.763 127.162 198.455 126.469C204.336 120.589 212.152 117.35 220.469 117.35C228.784 117.35 236.602 120.589 242.483 126.469C243.175 127.162 243.175 128.285 242.483 128.976C242.135 129.321 241.681 129.495 241.227 129.495Z" fill="#407BFF"/>
<path d="M223.889 148.08C223.889 149.968 222.357 151.5 220.468 151.5C218.579 151.5 217.047 149.968 217.047 148.08C217.047 146.19 218.579 144.659 220.468 144.659C222.358 144.659 223.889 146.19 223.889 148.08Z" fill="#407BFF"/>
<path d="M494.803 469.814H295.645V490.788H494.803V469.814Z" fill="#407BFF"/>
<path opacity="0.4" d="M494.803 469.814H295.645V490.788H494.803V469.814Z" fill="white"/>
<path opacity="0.2" d="M416.755 469.814H295.645V490.788H416.755V469.814Z" fill="white"/>
<path d="M369.384 419.205H502.393L522.661 314.53C524.878 303.087 516.112 292.461 504.456 292.461H409.225C400.342 292.461 392.708 298.759 391.02 307.48L369.384 419.205Z" fill="#407BFF"/>
<path opacity="0.3" d="M464.616 419.205H502.393L522.662 314.53C524.878 303.087 516.112 292.461 504.456 292.461C495.575 292.461 487.939 298.759 486.251 307.48L464.616 419.205Z" fill="black"/>
<path d="M281.399 463.737C281.399 468.897 285.582 473.08 290.742 473.08H498.088C503.248 473.08 507.431 468.897 507.431 463.737V427.268C507.431 422.108 503.248 417.925 498.088 417.925H290.742C285.582 417.925 281.399 422.108 281.399 427.268V463.737Z" fill="#407BFF"/>
<path opacity="0.3" d="M408.107 463.737C408.107 468.897 412.29 473.08 417.45 473.08H498.088C503.248 473.08 507.431 468.897 507.431 463.737V427.268C507.431 422.108 503.248 417.925 498.088 417.925H417.45C412.29 417.925 408.107 422.108 408.107 427.268V463.737Z" fill="black"/>
<path d="M401.986 302.436C394.097 303.005 391.366 340.351 390.824 341.988C390.281 343.625 369.384 375.655 369.384 375.655L373.681 380.097C373.681 380.097 402.439 352.976 403.374 343.156C404.309 333.336 409.016 301.93 401.986 302.436Z" fill="#263238"/>
<path opacity="0.2" d="M404.693 331.066C404.185 335.995 403.629 340.416 403.369 343.158C403.086 346.161 400.213 350.759 396.36 355.699C390.793 343.797 399.374 317.438 399.374 317.438C399.374 317.438 402.046 323.466 404.693 331.066Z" fill="black"/>
<path d="M361.748 478.941L369.525 475.841L366.487 464.501L363.685 454.103L353.852 456.279L358.027 468.279L361.748 478.941Z" fill="#EBB376"/>
<path opacity="0.2" d="M358.124 468.519L366.572 464.715L363.726 454.209L353.873 456.332L358.124 468.519Z" fill="black"/>
<path d="M420.602 376.798C420.602 376.798 355.611 368.035 337.53 379.569C319.449 391.102 354.446 461.364 354.446 461.364L365.39 458.946C365.39 458.946 357.19 403.255 357.802 400.92C358.416 398.586 389.025 413.786 430.924 415.226L420.602 376.798Z" fill="#407BFF"/>
<path opacity="0.5" d="M420.602 376.798C420.602 376.798 355.611 368.035 337.53 379.569C319.449 391.102 354.446 461.364 354.446 461.364L365.39 458.946C365.39 458.946 357.19 403.255 357.802 400.92C358.416 398.586 389.025 413.786 430.924 415.226L420.602 376.798Z" fill="white"/>
<path d="M291.672 475.46L297.695 481.275L306.783 473.844L315.111 467.013L309.084 458.946L299.862 467.684L291.672 475.46Z" fill="#EBB376"/>
<path d="M300.068 482.261C300.799 481.695 293.481 473 293.481 473C293.481 473 283.627 471.603 278.32 467.097C273.01 462.592 271.989 468.054 276.488 474.149C280.986 480.243 284.421 484.893 287.617 489.224C290.813 493.554 292.504 488.123 300.068 482.261Z" fill="#2E353A"/>
<path d="M291.688 472.588C291.688 472.588 294.175 468.909 292.123 467.806C289.761 466.539 291.688 472.588 291.688 472.588ZM291.688 472.588C291.688 472.588 289.833 467.608 288.148 468.295C285.595 469.336 291.688 472.588 291.688 472.588Z" stroke="#577AFA" stroke-width="0.4831" stroke-miterlimit="10" stroke-linecap="round" stroke-linejoin="round"/>
<path opacity="0.2" d="M299.682 467.871L306.624 474.009L315.03 467.096L309.043 458.986L299.682 467.871Z" fill="black"/>
<path d="M402.163 385.203C402.163 385.203 403.099 372.343 403.531 369.719C403.977 366.934 404.564 363.678 405.121 362.018C407.98 353.44 446.194 363.524 446.194 363.524C446.194 363.524 468.795 397.57 453 413.625C449.498 417.187 442.632 418.788 435.618 418.732C435.618 418.732 414.188 419.768 374.341 417.911C374.341 417.911 360.313 438.797 311.682 472.008L303.752 463.703C303.752 463.703 358.724 400.523 360.547 399.051C376.439 386.216 402.163 385.203 402.163 385.203Z" fill="#407BFF"/>
<path opacity="0.6" d="M402.163 385.203C402.163 385.203 403.099 372.343 403.531 369.719C403.977 366.934 404.564 363.678 405.121 362.018C407.98 353.44 446.194 363.524 446.194 363.524C446.194 363.524 468.795 397.57 453 413.625C449.498 417.187 442.632 418.788 435.618 418.732C435.618 418.732 414.188 419.768 374.341 417.911C374.341 417.911 360.313 438.797 311.682 472.008L303.752 463.703C303.752 463.703 358.724 400.523 360.547 399.051C376.439 386.216 402.163 385.203 402.163 385.203Z" fill="white"/>
<path d="M315.32 470.752L305.585 460.03L300.875 464.863L310.001 474.629L315.32 470.752Z" fill="#407BFF"/>
<path d="M449.569 314.594C445.804 325.922 445.629 351.507 446.959 365.648L404.209 365.374C396.854 337.179 399.339 317.385 399.969 310.779C400.745 302.738 401.99 302.441 401.99 302.441C401.99 302.441 410.705 301.584 418.299 301.641C424.17 301.847 430.028 302.463 435.819 303.49C440.126 304.208 444.384 305.167 448.58 306.364C450.445 306.896 451.486 308.879 450.863 310.716C450.411 312.052 449.98 313.344 449.569 314.594Z" fill="#263238"/>
<path opacity="0.1" d="M404.209 365.378L429.988 365.544L446.961 365.651C445.98 355.237 445.815 338.642 447.304 326.089C447.836 321.574 448.581 317.59 449.574 314.599C449.976 313.346 450.413 312.047 450.862 310.723C451.489 308.878 450.448 306.893 448.581 306.361C444.385 305.168 440.131 304.21 435.815 303.489C430.023 302.461 424.173 301.845 418.298 301.644C410.71 301.585 401.986 302.436 401.986 302.436C401.986 302.436 400.745 302.745 399.965 310.781C399.339 317.388 396.856 337.176 404.209 365.378Z" fill="white"/>
<path opacity="0.2" d="M446.962 365.651C445.98 355.237 445.815 338.642 447.304 326.089C442.044 333.558 432.789 348.629 429.988 365.544L446.962 365.651Z" fill="black"/>
<path d="M419.104 380.962C419.104 380.962 408.433 387.902 407.21 388.451C405.987 389 398.073 390.936 395.808 390.807C393.545 390.679 396.573 383.595 398.517 382.674C400.462 381.754 407.441 383.01 407.441 383.01L415.698 376.798L419.104 380.962Z" fill="#E4897B"/>
<path d="M346.142 388.451V391.924C346.142 392.815 347.191 393.181 348.071 393.181H417.462C418.354 393.181 419.426 392.815 419.426 391.924V388.451H346.142Z" fill="#263238"/>
<path opacity="0.4" d="M346.142 388.451V391.924C346.142 392.815 347.191 393.181 348.071 393.181H417.462C418.354 393.181 419.426 392.815 419.426 391.924V388.451H346.142Z" fill="white"/>
<path opacity="0.2" d="M346.142 388.451V391.924C346.142 392.815 347.191 393.181 348.071 393.181H393.839C394.729 393.181 395.786 392.815 395.786 391.924V388.451H346.142Z" fill="black"/>
<path d="M334.531 352.399L342.791 389.867C343.059 391.101 344.261 391.997 345.474 391.997H390.598C391.8 391.997 392.572 390.877 392.293 389.643L384.042 352.461C383.763 351.237 382.573 350.627 381.36 350.627H336.235C335.024 350.627 334.262 351.175 334.531 352.399Z" fill="#263238"/>
<path opacity="0.4" d="M334.531 352.399L342.791 389.867C343.059 391.101 344.261 391.997 345.474 391.997H389.064C390.275 391.997 391.037 390.877 390.769 389.643L382.508 352.461C382.24 351.237 381.039 350.627 379.826 350.627H336.236C335.024 350.627 334.262 351.175 334.531 352.399Z" fill="white"/>
<path opacity="0.2" d="M356.78 371.442V371.454C356.78 374.662 360.219 377.268 362.74 377.268C365.262 377.268 366.756 374.662 366.038 371.454C365.32 368.31 362.81 365.746 360.343 365.649C361.062 368.857 359.522 371.454 357.011 371.454C356.957 371.454 356.78 371.454 356.78 371.442Z" fill="black"/>
<path d="M450.418 307.68C441.942 300.876 445.157 339.189 441.156 347.918C437.154 356.647 413.338 377.268 413.338 377.268L418.452 383.009C418.452 383.009 447.528 366.977 451.611 356.213C456.79 342.565 456.673 312.7 450.418 307.68Z" fill="#263238"/>
<path d="M413.338 377.269L410.068 380.027L414.555 385.482L418.452 383.01L413.338 377.269Z" fill="#407BFF"/>
<path d="M365.996 455.448L352.221 459.915L354.69 466.195L367.344 461.891L365.996 455.448Z" fill="#407BFF"/>
<path d="M357.803 478.609C357.803 478.609 356.179 474.476 354.108 475.543C351.725 476.773 357.803 478.609 357.803 478.609ZM357.803 478.609C357.803 478.609 352.647 477.317 352.26 479.096C351.671 481.79 357.803 478.609 357.803 478.609Z" stroke="#577AFA" stroke-width="0.4831" stroke-miterlimit="10" stroke-linecap="round" stroke-linejoin="round"/>
<path d="M371.114 475.632C371.061 474.709 359.75 475.818 359.75 475.818C359.75 475.818 353.018 483.148 346.299 484.972C339.579 486.797 343.503 490.732 351.074 490.476C358.645 490.218 364.422 490.021 369.802 489.839C375.182 489.654 371.665 485.186 371.114 475.632Z" fill="#2E353A"/>
<path d="M426.41 299.631C426.41 299.631 436.794 298.792 439.373 304.141C441.952 309.489 436.971 317.438 436.971 317.438L429.471 311.827L414.03 317.438L410.068 312.061L407.055 313.698C407.055 313.698 406.893 297.255 426.41 299.631Z" fill="#407BFF"/>
<path opacity="0.2" d="M426.41 299.631C426.41 299.631 436.794 298.792 439.373 304.141C441.952 309.489 436.971 317.438 436.971 317.438L429.471 311.827L414.03 317.438L410.068 312.061L407.055 313.698C407.055 313.698 406.893 297.255 426.41 299.631Z" fill="white"/>
<path d="M434.022 304.922C434.022 304.922 430.106 310.509 415.355 315.498C415.355 315.498 408.783 307.144 418.776 303.326C418.776 303.326 420.856 302.676 421.305 299.365C421.53 297.769 421.377 295.547 420.419 292.474C420.312 292.119 420.182 291.742 420.052 291.364L432.203 283.764C432.203 283.764 427.923 299.164 434.022 304.922Z" fill="#E4897B"/>
<path opacity="0.2" d="M429.471 288.173C429.471 288.173 428.821 296.861 421.304 299.366C421.528 297.771 421.376 295.549 420.417 292.475C424.849 290.135 429.471 288.173 429.471 288.173Z" fill="black"/>
<path d="M413.891 262.736C413.891 262.736 412.403 252.565 423.24 249.292C425.949 248.474 428.681 248.533 431.254 249.083C440.161 250.985 446.411 259.019 446.716 268.121C447.048 278.063 444.724 290.774 430.382 289.623C407.086 287.753 413.891 262.736 413.891 262.736Z" fill="#263238"/>
<path d="M426.268 259.095C416.237 258.155 412.504 263.223 410.802 273.492C408.674 286.325 410.679 295.774 423.48 294.189C440.865 292.036 442.927 260.654 426.268 259.095Z" fill="#E4897B"/>
<path d="M417.338 273.54C417.338 273.54 415.702 276.029 414.03 277.426C414.03 277.426 414.761 278.872 416.568 278.809L417.338 273.54Z" fill="#DE5753"/>
<path d="M423.556 273.294C423.459 274.117 423.825 274.835 424.373 274.899C424.922 274.964 425.444 274.348 425.541 273.527C425.637 272.705 425.272 271.985 424.723 271.922C424.174 271.858 423.652 272.472 423.556 273.294Z" fill="#263238"/>
<path d="M424.946 271.988L423.24 271.076C423.24 271.076 423.955 272.686 424.946 271.988Z" fill="#263238"/>
<path d="M413.354 271.924C413.257 272.746 413.623 273.465 414.172 273.529C414.72 273.594 415.243 272.978 415.339 272.157C415.435 271.335 415.069 270.615 414.522 270.553C413.972 270.488 413.449 271.101 413.354 271.924Z" fill="#263238"/>
<path d="M414.745 270.618L413.039 269.708C413.039 269.708 413.752 271.316 414.745 270.618Z" fill="#263238"/>
<path d="M424.305 266.376C424.305 266.376 427.158 266.273 428.514 268.3" stroke="#263238" stroke-width="0.7247" stroke-miterlimit="10" stroke-linecap="round" stroke-linejoin="round"/>
<path d="M417.053 265.269C417.053 265.269 415.343 264.448 412.978 265.72" stroke="#263238" stroke-width="0.7247" stroke-miterlimit="10" stroke-linecap="round" stroke-linejoin="round"/>
<path d="M435.647 277.029C435.647 277.029 431.729 268.347 433.035 262.051C433.035 262.051 413.916 252.069 411.046 272.154C411.046 272.154 410.782 254.054 428.064 255.271C445.319 256.484 442.911 281.708 433.3 288.391C433.3 288.391 438.067 282.455 435.647 277.029Z" fill="#263238"/>
<path d="M433.811 278.993C434.029 277.385 435.951 274.807 438.925 275.415C442.002 276.045 442.886 282.567 435.009 283.376C433.88 283.493 433.356 282.35 433.811 278.993Z" fill="#E4897B"/>
<path d="M415.019 282.68C415.57 283.875 416.116 286.115 416.116 286.115C416.329 286.102 416.539 286.09 416.751 286.065C419.619 285.818 420.869 284.757 421.384 283.653C421.663 283.049 421.716 282.426 421.693 281.922C421.671 281.341 421.524 280.931 421.524 280.931C420.08 281.971 417.424 282.407 415.995 282.581C415.397 282.66 415.019 282.68 415.019 282.68Z" fill="#263238"/>
<path d="M415.995 282.581L416.344 283.585C419.046 283.347 420.916 282.816 421.692 281.924C421.67 281.342 421.523 280.932 421.523 280.932C420.08 281.972 417.424 282.408 415.995 282.581Z" fill="white"/>
<path d="M416.75 286.065C419.618 285.818 420.868 284.757 421.383 283.653C420.408 283.776 419.247 284.03 418.252 284.559C417.49 284.96 417.036 285.517 416.75 286.065Z" fill="#DE5753"/>
<path d="M443.705 269.333C443.705 269.333 438.881 261.659 447.064 258.619C455.247 255.58 463.196 266.115 458.287 273.414C453.377 280.714 445.545 278.039 445.545 278.039L443.705 269.333Z" fill="#263238"/>
</svg>
